<svg width="1196" height="1198" viewBox="0 0 1196 1198" fill="none" xmlns="http://www.w3.org/2000/svg">
<style>

  .button:hover path.text { fill: #40A0D7; }


  .button:hover {
    cursor: pointer;
  }

  .button:hover .inner {
    stroke: transparent;
    stroke-width: 0;
  }

</style>
<a href="/services/assessment-lab/" target="_top">
<g class="button button-4">
<rect x="608" y="729" width="311" height="314" fill="white"/>
<path class="text" d="M681.715 872.873C681.715 873.935 681.445 874.881 680.906 875.709C680.367 876.529 679.59 877.17 678.574 877.631C677.559 878.084 676.367 878.31 675 878.31C673.859 878.31 672.902 878.232 672.129 878.076C671.355 877.912 670.551 877.631 669.715 877.232V873.107C670.598 873.56 671.516 873.916 672.469 874.174C673.422 874.424 674.297 874.549 675.094 874.549C675.781 874.549 676.285 874.431 676.605 874.197C676.926 873.955 677.086 873.646 677.086 873.271C677.086 873.037 677.02 872.834 676.887 872.662C676.762 872.482 676.555 872.302 676.266 872.123C675.984 871.943 675.227 871.576 673.992 871.021C672.875 870.513 672.035 870.021 671.473 869.545C670.918 869.068 670.504 868.521 670.23 867.904C669.965 867.287 669.832 866.556 669.832 865.713C669.832 864.135 670.406 862.904 671.555 862.021C672.703 861.138 674.281 860.697 676.289 860.697C678.062 860.697 679.871 861.107 681.715 861.927L680.297 865.502C678.695 864.767 677.312 864.4 676.148 864.4C675.547 864.4 675.109 864.506 674.836 864.717C674.562 864.927 674.426 865.189 674.426 865.502C674.426 865.838 674.598 866.138 674.941 866.404C675.293 866.67 676.238 867.154 677.777 867.857C679.254 868.521 680.277 869.236 680.848 870.002C681.426 870.76 681.715 871.717 681.715 872.873ZM690.141 878.31C687.969 878.31 686.32 877.724 685.195 876.552C684.078 875.381 683.52 873.697 683.52 871.502C683.52 869.299 684.125 867.592 685.336 866.381C686.547 865.17 688.27 864.564 690.504 864.564C692.043 864.564 693.492 864.9 694.852 865.572L693.504 868.959C692.949 868.717 692.438 868.525 691.969 868.385C691.5 868.236 691.012 868.162 690.504 868.162C689.762 868.162 689.188 868.451 688.781 869.029C688.375 869.607 688.172 870.424 688.172 871.478C688.172 873.603 688.957 874.666 690.527 874.666C691.871 874.666 693.16 874.275 694.395 873.494V877.138C693.215 877.92 691.797 878.31 690.141 878.31ZM705.387 878.076V870.834C705.387 869.052 704.859 868.162 703.805 868.162C703.055 868.162 702.5 868.478 702.141 869.111C701.789 869.736 701.613 870.779 701.613 872.24V878.076H697.031V859.842H701.613V862.431C701.613 863.603 701.551 864.939 701.426 866.439H701.637C702.074 865.752 702.594 865.267 703.195 864.986C703.797 864.705 704.496 864.564 705.293 864.564C706.777 864.564 707.93 864.994 708.75 865.853C709.578 866.705 709.992 867.9 709.992 869.439V878.076H705.387ZM725.789 871.408C725.789 873.58 725.203 875.275 724.031 876.494C722.867 877.705 721.234 878.31 719.133 878.31C717.117 878.31 715.512 877.689 714.316 876.447C713.129 875.205 712.535 873.525 712.535 871.408C712.535 869.244 713.117 867.564 714.281 866.369C715.453 865.166 717.094 864.564 719.203 864.564C720.508 864.564 721.66 864.842 722.66 865.396C723.66 865.951 724.43 866.748 724.969 867.787C725.516 868.818 725.789 870.025 725.789 871.408ZM717.188 871.408C717.188 872.549 717.34 873.42 717.645 874.021C717.949 874.615 718.461 874.912 719.18 874.912C719.891 874.912 720.391 874.615 720.68 874.021C720.977 873.42 721.125 872.549 721.125 871.408C721.125 870.275 720.977 869.42 720.68 868.842C720.383 868.263 719.875 867.974 719.156 867.974C718.453 867.974 717.949 868.263 717.645 868.842C717.34 869.412 717.188 870.267 717.188 871.408ZM741.094 871.408C741.094 873.58 740.508 875.275 739.336 876.494C738.172 877.705 736.539 878.31 734.438 878.31C732.422 878.31 730.816 877.689 729.621 876.447C728.434 875.205 727.84 873.525 727.84 871.408C727.84 869.244 728.422 867.564 729.586 866.369C730.758 865.166 732.398 864.564 734.508 864.564C735.812 864.564 736.965 864.842 737.965 865.396C738.965 865.951 739.734 866.748 740.273 867.787C740.82 868.818 741.094 870.025 741.094 871.408ZM732.492 871.408C732.492 872.549 732.645 873.42 732.949 874.021C733.254 874.615 733.766 874.912 734.484 874.912C735.195 874.912 735.695 874.615 735.984 874.021C736.281 873.42 736.43 872.549 736.43 871.408C736.43 870.275 736.281 869.42 735.984 868.842C735.688 868.263 735.18 867.974 734.461 867.974C733.758 867.974 733.254 868.263 732.949 868.842C732.645 869.412 732.492 870.267 732.492 871.408ZM748.301 878.076H743.719V859.842H748.301V878.076ZM765.609 864.494C764.508 864.494 763.648 864.947 763.031 865.853C762.414 866.752 762.105 867.994 762.105 869.58C762.105 872.877 763.359 874.525 765.867 874.525C766.625 874.525 767.359 874.42 768.07 874.209C768.781 873.998 769.496 873.744 770.215 873.447V877.361C768.785 877.994 767.168 878.31 765.363 878.31C762.777 878.31 760.793 877.56 759.41 876.06C758.035 874.56 757.348 872.392 757.348 869.556C757.348 867.783 757.68 866.224 758.344 864.881C759.016 863.537 759.977 862.506 761.227 861.787C762.484 861.06 763.961 860.697 765.656 860.697C767.508 860.697 769.277 861.099 770.965 861.904L769.547 865.549C768.914 865.252 768.281 865.002 767.648 864.799C767.016 864.595 766.336 864.494 765.609 864.494ZM777.879 878.076H773.297V859.842H777.879V878.076ZM785.66 878.076H781.078V864.799H785.66V878.076ZM780.961 861.494C780.961 860.806 781.152 860.295 781.535 859.959C781.918 859.623 782.535 859.455 783.387 859.455C784.238 859.455 784.859 859.627 785.25 859.97C785.641 860.314 785.836 860.822 785.836 861.494C785.836 862.838 785.02 863.51 783.387 863.51C781.77 863.51 780.961 862.838 780.961 861.494ZM805.16 878.076V870.857C805.16 869.959 805.035 869.287 804.785 868.842C804.543 868.388 804.156 868.162 803.625 868.162C802.922 868.162 802.406 868.463 802.078 869.064C801.75 869.666 801.586 870.607 801.586 871.888V878.076H796.992V870.857C796.992 869.959 796.875 869.287 796.641 868.842C796.406 868.388 796.027 868.162 795.504 868.162C794.785 868.162 794.262 868.482 793.934 869.123C793.605 869.763 793.441 870.81 793.441 872.263V878.076H788.859V864.799H792.316L792.891 866.439H793.16C793.512 865.83 794.02 865.365 794.684 865.045C795.355 864.724 796.117 864.564 796.969 864.564C798.883 864.564 800.227 865.146 801 866.31H801.363C801.738 865.763 802.258 865.338 802.922 865.033C803.594 864.72 804.332 864.564 805.137 864.564C806.707 864.564 807.867 864.967 808.617 865.771C809.367 866.576 809.742 867.799 809.742 869.439V878.076H805.16ZM821.52 878.076L820.641 876.318H820.547C819.93 877.084 819.301 877.607 818.66 877.888C818.02 878.17 817.191 878.31 816.176 878.31C814.926 878.31 813.941 877.935 813.223 877.185C812.504 876.435 812.145 875.381 812.145 874.021C812.145 872.607 812.637 871.556 813.621 870.869C814.605 870.174 816.031 869.783 817.898 869.697L820.113 869.627V869.439C820.113 868.345 819.574 867.799 818.496 867.799C817.527 867.799 816.297 868.127 814.805 868.783L813.48 865.76C815.027 864.963 816.98 864.564 819.34 864.564C821.043 864.564 822.359 864.986 823.289 865.83C824.227 866.674 824.695 867.853 824.695 869.369V878.076H821.52ZM818.121 875.076C818.676 875.076 819.148 874.9 819.539 874.549C819.938 874.197 820.137 873.74 820.137 873.177V872.146L819.082 872.193C817.574 872.248 816.82 872.802 816.82 873.857C816.82 874.67 817.254 875.076 818.121 875.076ZM834.316 874.689C834.934 874.689 835.672 874.537 836.531 874.232V877.572C835.914 877.838 835.324 878.025 834.762 878.135C834.207 878.252 833.555 878.31 832.805 878.31C831.266 878.31 830.156 877.935 829.477 877.185C828.797 876.427 828.457 875.267 828.457 873.705V868.232H826.852V866.369L828.891 864.927L830.074 862.138H833.074V864.799H836.332V868.232H833.074V873.4C833.074 874.26 833.488 874.689 834.316 874.689ZM845.262 878.31C843.051 878.31 841.332 877.724 840.105 876.552C838.887 875.373 838.277 873.697 838.277 871.525C838.277 869.283 838.844 867.564 839.977 866.369C841.109 865.166 842.727 864.564 844.828 864.564C846.828 864.564 848.371 865.088 849.457 866.135C850.551 867.174 851.098 868.674 851.098 870.635V872.674H842.906C842.938 873.416 843.207 873.998 843.715 874.42C844.23 874.842 844.93 875.052 845.812 875.052C846.617 875.052 847.355 874.978 848.027 874.83C848.707 874.674 849.441 874.412 850.23 874.045V877.338C849.512 877.705 848.77 877.959 848.004 878.099C847.238 878.24 846.324 878.31 845.262 878.31ZM844.992 867.681C844.453 867.681 844 867.853 843.633 868.197C843.273 868.533 843.062 869.064 843 869.791H846.938C846.922 869.15 846.738 868.638 846.387 868.256C846.043 867.873 845.578 867.681 844.992 867.681ZM675.855 912.076L675.012 908.865H669.445L668.578 912.076H663.492L669.082 894.873H675.258L680.918 912.076H675.855ZM674.051 905.068L673.312 902.256C673.141 901.631 672.93 900.822 672.68 899.83C672.438 898.838 672.277 898.127 672.199 897.697C672.129 898.095 671.988 898.752 671.777 899.666C671.574 900.58 671.117 902.381 670.406 905.068H674.051ZM692.766 907.998C692.766 909.42 692.281 910.494 691.312 911.22C690.344 911.947 688.953 912.31 687.141 912.31C686.156 912.31 685.301 912.256 684.574 912.146C683.848 912.045 683.105 911.853 682.348 911.572V907.904C683.059 908.217 683.836 908.474 684.68 908.677C685.531 908.881 686.289 908.982 686.953 908.982C687.945 908.982 688.441 908.756 688.441 908.302C688.441 908.068 688.301 907.861 688.02 907.681C687.746 907.494 686.941 907.135 685.605 906.603C684.387 906.103 683.535 905.537 683.051 904.904C682.566 904.263 682.324 903.455 682.324 902.478C682.324 901.244 682.801 900.283 683.754 899.595C684.707 898.908 686.055 898.564 687.797 898.564C688.672 898.564 689.492 898.662 690.258 898.857C691.031 899.045 691.832 899.322 692.66 899.689L691.418 902.642C690.809 902.369 690.164 902.138 689.484 901.951C688.805 901.756 688.25 901.658 687.82 901.658C687.07 901.658 686.695 901.842 686.695 902.209C686.695 902.435 686.824 902.631 687.082 902.795C687.348 902.951 688.105 903.275 689.355 903.767C690.285 904.15 690.977 904.525 691.43 904.892C691.891 905.26 692.227 905.693 692.438 906.193C692.656 906.685 692.766 907.287 692.766 907.998ZM705.562 907.998C705.562 909.42 705.078 910.494 704.109 911.22C703.141 911.947 701.75 912.31 699.938 912.31C698.953 912.31 698.098 912.256 697.371 912.146C696.645 912.045 695.902 911.853 695.145 911.572V907.904C695.855 908.217 696.633 908.474 697.477 908.677C698.328 908.881 699.086 908.982 699.75 908.982C700.742 908.982 701.238 908.756 701.238 908.302C701.238 908.068 701.098 907.861 700.816 907.681C700.543 907.494 699.738 907.135 698.402 906.603C697.184 906.103 696.332 905.537 695.848 904.904C695.363 904.263 695.121 903.455 695.121 902.478C695.121 901.244 695.598 900.283 696.551 899.595C697.504 898.908 698.852 898.564 700.594 898.564C701.469 898.564 702.289 898.662 703.055 898.857C703.828 899.045 704.629 899.322 705.457 899.689L704.215 902.642C703.605 902.369 702.961 902.138 702.281 901.951C701.602 901.756 701.047 901.658 700.617 901.658C699.867 901.658 699.492 901.842 699.492 902.209C699.492 902.435 699.621 902.631 699.879 902.795C700.145 902.951 700.902 903.275 702.152 903.767C703.082 904.15 703.773 904.525 704.227 904.892C704.688 905.26 705.023 905.693 705.234 906.193C705.453 906.685 705.562 907.287 705.562 907.998ZM714.516 912.31C712.305 912.31 710.586 911.724 709.359 910.552C708.141 909.373 707.531 907.697 707.531 905.525C707.531 903.283 708.098 901.564 709.23 900.369C710.363 899.166 711.98 898.564 714.082 898.564C716.082 898.564 717.625 899.088 718.711 900.135C719.805 901.174 720.352 902.674 720.352 904.635V906.674H712.16C712.191 907.416 712.461 907.998 712.969 908.42C713.484 908.842 714.184 909.052 715.066 909.052C715.871 909.052 716.609 908.978 717.281 908.83C717.961 908.674 718.695 908.412 719.484 908.045V911.338C718.766 911.705 718.023 911.959 717.258 912.099C716.492 912.24 715.578 912.31 714.516 912.31ZM714.246 901.681C713.707 901.681 713.254 901.853 712.887 902.197C712.527 902.533 712.316 903.064 712.254 903.791H716.191C716.176 903.15 715.992 902.638 715.641 902.256C715.297 901.873 714.832 901.681 714.246 901.681ZM733.195 907.998C733.195 909.42 732.711 910.494 731.742 911.22C730.773 911.947 729.383 912.31 727.57 912.31C726.586 912.31 725.73 912.256 725.004 912.146C724.277 912.045 723.535 911.853 722.777 911.572V907.904C723.488 908.217 724.266 908.474 725.109 908.677C725.961 908.881 726.719 908.982 727.383 908.982C728.375 908.982 728.871 908.756 728.871 908.302C728.871 908.068 728.73 907.861 728.449 907.681C728.176 907.494 727.371 907.135 726.035 906.603C724.816 906.103 723.965 905.537 723.48 904.904C722.996 904.263 722.754 903.455 722.754 902.478C722.754 901.244 723.23 900.283 724.184 899.595C725.137 898.908 726.484 898.564 728.227 898.564C729.102 898.564 729.922 898.662 730.688 898.857C731.461 899.045 732.262 899.322 733.09 899.689L731.848 902.642C731.238 902.369 730.594 902.138 729.914 901.951C729.234 901.756 728.68 901.658 728.25 901.658C727.5 901.658 727.125 901.842 727.125 902.209C727.125 902.435 727.254 902.631 727.512 902.795C727.777 902.951 728.535 903.275 729.785 903.767C730.715 904.15 731.406 904.525 731.859 904.892C732.32 905.26 732.656 905.693 732.867 906.193C733.086 906.685 733.195 907.287 733.195 907.998ZM745.992 907.998C745.992 909.42 745.508 910.494 744.539 911.22C743.57 911.947 742.18 912.31 740.367 912.31C739.383 912.31 738.527 912.256 737.801 912.146C737.074 912.045 736.332 911.853 735.574 911.572V907.904C736.285 908.217 737.062 908.474 737.906 908.677C738.758 908.881 739.516 908.982 740.18 908.982C741.172 908.982 741.668 908.756 741.668 908.302C741.668 908.068 741.527 907.861 741.246 907.681C740.973 907.494 740.168 907.135 738.832 906.603C737.613 906.103 736.762 905.537 736.277 904.904C735.793 904.263 735.551 903.455 735.551 902.478C735.551 901.244 736.027 900.283 736.98 899.595C737.934 898.908 739.281 898.564 741.023 898.564C741.898 898.564 742.719 898.662 743.484 898.857C744.258 899.045 745.059 899.322 745.887 899.689L744.645 902.642C744.035 902.369 743.391 902.138 742.711 901.951C742.031 901.756 741.477 901.658 741.047 901.658C740.297 901.658 739.922 901.842 739.922 902.209C739.922 902.435 740.051 902.631 740.309 902.795C740.574 902.951 741.332 903.275 742.582 903.767C743.512 904.15 744.203 904.525 744.656 904.892C745.117 905.26 745.453 905.693 745.664 906.193C745.883 906.685 745.992 907.287 745.992 907.998ZM764.836 912.076V904.857C764.836 903.959 764.711 903.287 764.461 902.842C764.219 902.388 763.832 902.162 763.301 902.162C762.598 902.162 762.082 902.463 761.754 903.064C761.426 903.666 761.262 904.607 761.262 905.888V912.076H756.668V904.857C756.668 903.959 756.551 903.287 756.316 902.842C756.082 902.388 755.703 902.162 755.18 902.162C754.461 902.162 753.938 902.482 753.609 903.123C753.281 903.763 753.117 904.81 753.117 906.263V912.076H748.535V898.799H751.992L752.566 900.439H752.836C753.188 899.83 753.695 899.365 754.359 899.045C755.031 898.724 755.793 898.564 756.645 898.564C758.559 898.564 759.902 899.146 760.676 900.31H761.039C761.414 899.763 761.934 899.338 762.598 899.033C763.27 898.72 764.008 898.564 764.812 898.564C766.383 898.564 767.543 898.967 768.293 899.771C769.043 900.576 769.418 901.799 769.418 903.439V912.076H764.836ZM778.945 912.31C776.734 912.31 775.016 911.724 773.789 910.552C772.57 909.373 771.961 907.697 771.961 905.525C771.961 903.283 772.527 901.564 773.66 900.369C774.793 899.166 776.41 898.564 778.512 898.564C780.512 898.564 782.055 899.088 783.141 900.135C784.234 901.174 784.781 902.674 784.781 904.635V906.674H776.59C776.621 907.416 776.891 907.998 777.398 908.42C777.914 908.842 778.613 909.052 779.496 909.052C780.301 909.052 781.039 908.978 781.711 908.83C782.391 908.674 783.125 908.412 783.914 908.045V911.338C783.195 911.705 782.453 911.959 781.688 912.099C780.922 912.24 780.008 912.31 778.945 912.31ZM778.676 901.681C778.137 901.681 777.684 901.853 777.316 902.197C776.957 902.533 776.746 903.064 776.684 903.791H780.621C780.605 903.15 780.422 902.638 780.07 902.256C779.727 901.873 779.262 901.681 778.676 901.681ZM795.75 912.076V904.834C795.75 903.951 795.621 903.287 795.363 902.842C795.113 902.388 794.707 902.162 794.145 902.162C793.371 902.162 792.812 902.47 792.469 903.088C792.125 903.705 791.953 904.763 791.953 906.263V912.076H787.371V898.799H790.828L791.402 900.439H791.672C792.062 899.814 792.602 899.345 793.289 899.033C793.984 898.72 794.781 898.564 795.68 898.564C797.148 898.564 798.289 898.99 799.102 899.842C799.922 900.693 800.332 901.892 800.332 903.439V912.076H795.75ZM809.953 908.689C810.57 908.689 811.309 908.537 812.168 908.232V911.572C811.551 911.838 810.961 912.025 810.398 912.135C809.844 912.252 809.191 912.31 808.441 912.31C806.902 912.31 805.793 911.935 805.113 911.185C804.434 910.427 804.094 909.267 804.094 907.705V902.232H802.488V900.369L804.527 898.927L805.711 896.138H808.711V898.799H811.969V902.232H808.711V907.4C808.711 908.26 809.125 908.689 809.953 908.689ZM820.992 912.076V894.943H825.621V908.338H832.219V912.076H820.992ZM843.352 912.076L842.473 910.318H842.379C841.762 911.084 841.133 911.607 840.492 911.888C839.852 912.17 839.023 912.31 838.008 912.31C836.758 912.31 835.773 911.935 835.055 911.185C834.336 910.435 833.977 909.381 833.977 908.021C833.977 906.607 834.469 905.556 835.453 904.869C836.438 904.174 837.863 903.783 839.73 903.697L841.945 903.627V903.439C841.945 902.345 841.406 901.799 840.328 901.799C839.359 901.799 838.129 902.127 836.637 902.783L835.312 899.76C836.859 898.963 838.812 898.564 841.172 898.564C842.875 898.564 844.191 898.986 845.121 899.83C846.059 900.674 846.527 901.853 846.527 903.369V912.076H843.352ZM839.953 909.076C840.508 909.076 840.98 908.9 841.371 908.549C841.77 908.197 841.969 907.74 841.969 907.177V906.146L840.914 906.193C839.406 906.248 838.652 906.802 838.652 907.857C838.652 908.67 839.086 909.076 839.953 909.076ZM857.754 898.564C859.199 898.564 860.344 899.17 861.188 900.381C862.039 901.592 862.465 903.267 862.465 905.408C862.465 907.564 862.035 909.256 861.176 910.482C860.324 911.701 859.137 912.31 857.613 912.31C857.121 912.31 856.684 912.256 856.301 912.146C855.918 912.045 855.574 911.9 855.27 911.713C854.973 911.525 854.625 911.213 854.227 910.775H853.945L853.219 912.076H849.645V893.842H854.227V897.967C854.227 898.459 854.172 899.306 854.062 900.51H854.227C854.672 899.822 855.184 899.326 855.762 899.021C856.348 898.717 857.012 898.564 857.754 898.564ZM856.078 902.162C855.438 902.162 854.969 902.385 854.672 902.83C854.375 903.275 854.227 903.974 854.227 904.927V905.572C854.227 906.658 854.375 907.439 854.672 907.916C854.969 908.385 855.453 908.619 856.125 908.619C856.664 908.619 857.078 908.345 857.367 907.799C857.656 907.244 857.801 906.431 857.801 905.361C857.801 903.228 857.227 902.162 856.078 902.162Z" fill="#333333"/>
<path class="inner" fill-rule="evenodd" clip-rule="evenodd" d="M590.406 626.596C662.414 578.268 754.013 560.117 844.207 584.342C1010.11 628.909 1108.73 800.13 1064.26 966.46C1019.83 1132.79 849.012 1231.64 683.114 1187.08C592.919 1162.85 522.649 1101.21 484.39 1023.26C544.828 982.681 591.441 920.819 611.735 844.901C632.028 768.983 622.528 692.045 590.406 626.596ZM803.915 735.026C886.902 757.309 936.176 842.922 913.96 926.085C891.744 1009.25 806.355 1058.68 723.369 1036.39C640.419 1014.11 591.145 928.497 613.361 845.334C635.577 762.171 720.966 712.742 803.915 735.026Z" fill="#FCE315"/>
</g>
</a>
<a href="/services/support-network/" target="_top">
<g class="button button-3">
<rect x="156" y="608" width="310" height="314" fill="white"/>
<path class="text" d="M231.102 750.694C231.102 751.756 230.832 752.702 230.293 753.53C229.754 754.35 228.977 754.991 227.961 755.452C226.945 755.905 225.754 756.131 224.387 756.131C223.246 756.131 222.289 756.053 221.516 755.897C220.742 755.733 219.938 755.452 219.102 755.053V750.928C219.984 751.381 220.902 751.737 221.855 751.995C222.809 752.245 223.684 752.37 224.48 752.37C225.168 752.37 225.672 752.253 225.992 752.018C226.312 751.776 226.473 751.467 226.473 751.092C226.473 750.858 226.406 750.655 226.273 750.483C226.148 750.303 225.941 750.124 225.652 749.944C225.371 749.764 224.613 749.397 223.379 748.842C222.262 748.335 221.422 747.842 220.859 747.366C220.305 746.889 219.891 746.342 219.617 745.725C219.352 745.108 219.219 744.378 219.219 743.534C219.219 741.956 219.793 740.725 220.941 739.842C222.09 738.96 223.668 738.518 225.676 738.518C227.449 738.518 229.258 738.928 231.102 739.749L229.684 743.323C228.082 742.589 226.699 742.221 225.535 742.221C224.934 742.221 224.496 742.327 224.223 742.538C223.949 742.749 223.812 743.01 223.812 743.323C223.812 743.659 223.984 743.96 224.328 744.225C224.68 744.491 225.625 744.975 227.164 745.678C228.641 746.342 229.664 747.057 230.234 747.823C230.812 748.581 231.102 749.538 231.102 750.694ZM239.527 756.131C237.355 756.131 235.707 755.546 234.582 754.374C233.465 753.202 232.906 751.518 232.906 749.323C232.906 747.12 233.512 745.413 234.723 744.202C235.934 742.991 237.656 742.385 239.891 742.385C241.43 742.385 242.879 742.721 244.238 743.393L242.891 746.78C242.336 746.538 241.824 746.346 241.355 746.206C240.887 746.057 240.398 745.983 239.891 745.983C239.148 745.983 238.574 746.272 238.168 746.85C237.762 747.428 237.559 748.245 237.559 749.299C237.559 751.424 238.344 752.487 239.914 752.487C241.258 752.487 242.547 752.096 243.781 751.315V754.96C242.602 755.741 241.184 756.131 239.527 756.131ZM254.773 755.897V748.655C254.773 746.874 254.246 745.983 253.191 745.983C252.441 745.983 251.887 746.299 251.527 746.932C251.176 747.557 251 748.6 251 750.061V755.897H246.418V737.663H251V740.253C251 741.424 250.938 742.76 250.812 744.26H251.023C251.461 743.573 251.98 743.089 252.582 742.807C253.184 742.526 253.883 742.385 254.68 742.385C256.164 742.385 257.316 742.815 258.137 743.674C258.965 744.526 259.379 745.721 259.379 747.26V755.897H254.773ZM275.176 749.229C275.176 751.401 274.59 753.096 273.418 754.315C272.254 755.526 270.621 756.131 268.52 756.131C266.504 756.131 264.898 755.51 263.703 754.268C262.516 753.026 261.922 751.346 261.922 749.229C261.922 747.065 262.504 745.385 263.668 744.19C264.84 742.987 266.48 742.385 268.59 742.385C269.895 742.385 271.047 742.663 272.047 743.217C273.047 743.772 273.816 744.569 274.355 745.608C274.902 746.639 275.176 747.846 275.176 749.229ZM266.574 749.229C266.574 750.37 266.727 751.241 267.031 751.842C267.336 752.436 267.848 752.733 268.566 752.733C269.277 752.733 269.777 752.436 270.066 751.842C270.363 751.241 270.512 750.37 270.512 749.229C270.512 748.096 270.363 747.241 270.066 746.663C269.77 746.085 269.262 745.796 268.543 745.796C267.84 745.796 267.336 746.085 267.031 746.663C266.727 747.233 266.574 748.089 266.574 749.229ZM290.48 749.229C290.48 751.401 289.895 753.096 288.723 754.315C287.559 755.526 285.926 756.131 283.824 756.131C281.809 756.131 280.203 755.51 279.008 754.268C277.82 753.026 277.227 751.346 277.227 749.229C277.227 747.065 277.809 745.385 278.973 744.19C280.145 742.987 281.785 742.385 283.895 742.385C285.199 742.385 286.352 742.663 287.352 743.217C288.352 743.772 289.121 744.569 289.66 745.608C290.207 746.639 290.48 747.846 290.48 749.229ZM281.879 749.229C281.879 750.37 282.031 751.241 282.336 751.842C282.641 752.436 283.152 752.733 283.871 752.733C284.582 752.733 285.082 752.436 285.371 751.842C285.668 751.241 285.816 750.37 285.816 749.229C285.816 748.096 285.668 747.241 285.371 746.663C285.074 746.085 284.566 745.796 283.848 745.796C283.145 745.796 282.641 746.085 282.336 746.663C282.031 747.233 281.879 748.089 281.879 749.229ZM297.688 755.897H293.105V737.663H297.688V755.897ZM318.57 750.694C318.57 751.756 318.301 752.702 317.762 753.53C317.223 754.35 316.445 754.991 315.43 755.452C314.414 755.905 313.223 756.131 311.855 756.131C310.715 756.131 309.758 756.053 308.984 755.897C308.211 755.733 307.406 755.452 306.57 755.053V750.928C307.453 751.381 308.371 751.737 309.324 751.995C310.277 752.245 311.152 752.37 311.949 752.37C312.637 752.37 313.141 752.253 313.461 752.018C313.781 751.776 313.941 751.467 313.941 751.092C313.941 750.858 313.875 750.655 313.742 750.483C313.617 750.303 313.41 750.124 313.121 749.944C312.84 749.764 312.082 749.397 310.848 748.842C309.73 748.335 308.891 747.842 308.328 747.366C307.773 746.889 307.359 746.342 307.086 745.725C306.82 745.108 306.688 744.378 306.688 743.534C306.688 741.956 307.262 740.725 308.41 739.842C309.559 738.96 311.137 738.518 313.145 738.518C314.918 738.518 316.727 738.928 318.57 739.749L317.152 743.323C315.551 742.589 314.168 742.221 313.004 742.221C312.402 742.221 311.965 742.327 311.691 742.538C311.418 742.749 311.281 743.01 311.281 743.323C311.281 743.659 311.453 743.96 311.797 744.225C312.148 744.491 313.094 744.975 314.633 745.678C316.109 746.342 317.133 747.057 317.703 747.823C318.281 748.581 318.57 749.538 318.57 750.694ZM330.406 755.897L329.832 754.245H329.562C329.18 754.854 328.645 755.323 327.957 755.651C327.277 755.971 326.477 756.131 325.555 756.131C324.094 756.131 322.957 755.71 322.145 754.866C321.332 754.014 320.926 752.815 320.926 751.268V742.62H325.508V749.874C325.508 750.741 325.629 751.397 325.871 751.842C326.121 752.288 326.527 752.51 327.09 752.51C327.879 752.51 328.441 752.202 328.777 751.585C329.113 750.96 329.281 749.909 329.281 748.432V742.62H333.863V755.897H330.406ZM344.996 756.131C344.324 756.131 343.723 756.022 343.191 755.803C342.66 755.577 342.133 755.174 341.609 754.596H341.398C341.539 755.526 341.609 756.104 341.609 756.331V761.663H337.027V742.62H340.754L341.398 744.307H341.609C342.461 743.026 343.637 742.385 345.137 742.385C346.605 742.385 347.758 742.995 348.594 744.214C349.43 745.432 349.848 747.104 349.848 749.229C349.848 751.37 349.41 753.057 348.535 754.292C347.668 755.518 346.488 756.131 344.996 756.131ZM343.461 745.983C342.789 745.983 342.316 746.225 342.043 746.71C341.777 747.186 341.633 747.897 341.609 748.842V749.206C341.609 750.346 341.762 751.171 342.066 751.678C342.371 752.186 342.852 752.44 343.508 752.44C344.094 752.44 344.52 752.19 344.785 751.69C345.051 751.182 345.184 750.346 345.184 749.182C345.184 748.042 345.051 747.225 344.785 746.733C344.52 746.233 344.078 745.983 343.461 745.983ZM360.441 756.131C359.77 756.131 359.168 756.022 358.637 755.803C358.105 755.577 357.578 755.174 357.055 754.596H356.844C356.984 755.526 357.055 756.104 357.055 756.331V761.663H352.473V742.62H356.199L356.844 744.307H357.055C357.906 743.026 359.082 742.385 360.582 742.385C362.051 742.385 363.203 742.995 364.039 744.214C364.875 745.432 365.293 747.104 365.293 749.229C365.293 751.37 364.855 753.057 363.98 754.292C363.113 755.518 361.934 756.131 360.441 756.131ZM358.906 745.983C358.234 745.983 357.762 746.225 357.488 746.71C357.223 747.186 357.078 747.897 357.055 748.842V749.206C357.055 750.346 357.207 751.171 357.512 751.678C357.816 752.186 358.297 752.44 358.953 752.44C359.539 752.44 359.965 752.19 360.23 751.69C360.496 751.182 360.629 750.346 360.629 749.182C360.629 748.042 360.496 747.225 360.23 746.733C359.965 746.233 359.523 745.983 358.906 745.983ZM380.598 749.229C380.598 751.401 380.012 753.096 378.84 754.315C377.676 755.526 376.043 756.131 373.941 756.131C371.926 756.131 370.32 755.51 369.125 754.268C367.938 753.026 367.344 751.346 367.344 749.229C367.344 747.065 367.926 745.385 369.09 744.19C370.262 742.987 371.902 742.385 374.012 742.385C375.316 742.385 376.469 742.663 377.469 743.217C378.469 743.772 379.238 744.569 379.777 745.608C380.324 746.639 380.598 747.846 380.598 749.229ZM371.996 749.229C371.996 750.37 372.148 751.241 372.453 751.842C372.758 752.436 373.27 752.733 373.988 752.733C374.699 752.733 375.199 752.436 375.488 751.842C375.785 751.241 375.934 750.37 375.934 749.229C375.934 748.096 375.785 747.241 375.488 746.663C375.191 746.085 374.684 745.796 373.965 745.796C373.262 745.796 372.758 746.085 372.453 746.663C372.148 747.233 371.996 748.089 371.996 749.229ZM391.238 742.385C391.637 742.385 392.016 742.417 392.375 742.479L392.633 742.526L392.223 746.85C391.848 746.756 391.328 746.71 390.664 746.71C389.664 746.71 388.938 746.94 388.484 747.401C388.031 747.854 387.805 748.51 387.805 749.37V755.897H383.223V742.62H386.633L387.348 744.741H387.57C387.953 744.038 388.484 743.471 389.164 743.042C389.852 742.604 390.543 742.385 391.238 742.385ZM401 752.51C401.617 752.51 402.355 752.358 403.215 752.053V755.393C402.598 755.659 402.008 755.846 401.445 755.956C400.891 756.073 400.238 756.131 399.488 756.131C397.949 756.131 396.84 755.756 396.16 755.006C395.48 754.249 395.141 753.089 395.141 751.526V746.053H393.535V744.19L395.574 742.749L396.758 739.96H399.758V742.62H403.016V746.053H399.758V751.221C399.758 752.081 400.172 752.51 401 752.51ZM274.098 789.897H268.027L261.77 777.827H261.664C261.812 779.725 261.887 781.174 261.887 782.174V789.897H257.785V772.764H263.832L270.066 784.671H270.137C270.027 782.944 269.973 781.557 269.973 780.51V772.764H274.098V789.897ZM283.941 790.131C281.73 790.131 280.012 789.546 278.785 788.374C277.566 787.194 276.957 785.518 276.957 783.346C276.957 781.104 277.523 779.385 278.656 778.19C279.789 776.987 281.406 776.385 283.508 776.385C285.508 776.385 287.051 776.909 288.137 777.956C289.23 778.995 289.777 780.495 289.777 782.456V784.495H281.586C281.617 785.237 281.887 785.819 282.395 786.241C282.91 786.663 283.609 786.874 284.492 786.874C285.297 786.874 286.035 786.799 286.707 786.651C287.387 786.495 288.121 786.233 288.91 785.866V789.159C288.191 789.526 287.449 789.78 286.684 789.921C285.918 790.061 285.004 790.131 283.941 790.131ZM283.672 779.503C283.133 779.503 282.68 779.674 282.312 780.018C281.953 780.354 281.742 780.885 281.68 781.612H285.617C285.602 780.971 285.418 780.46 285.066 780.077C284.723 779.694 284.258 779.503 283.672 779.503ZM298.871 786.51C299.488 786.51 300.227 786.358 301.086 786.053V789.393C300.469 789.659 299.879 789.846 299.316 789.956C298.762 790.073 298.109 790.131 297.359 790.131C295.82 790.131 294.711 789.756 294.031 789.006C293.352 788.249 293.012 787.089 293.012 785.526V780.053H291.406V778.19L293.445 776.749L294.629 773.96H297.629V776.62H300.887V780.053H297.629V785.221C297.629 786.081 298.043 786.51 298.871 786.51ZM314.832 789.897L313.332 783.569L312.98 781.659L312.746 780.124H312.676C312.293 782.311 312.035 783.69 311.902 784.26L310.555 789.897H305.738L302.117 776.62H306.629L307.707 781.717C308.051 783.467 308.25 784.921 308.305 786.077H308.375C308.398 785.358 308.613 783.991 309.02 781.975L310.25 776.62H315.312L316.438 782.046C316.797 783.772 317.023 785.116 317.117 786.077H317.188C317.234 785.483 317.312 784.745 317.422 783.862C317.531 782.971 317.652 782.256 317.785 781.717L318.957 776.62H323.375L319.73 789.897H314.832ZM337.93 783.229C337.93 785.401 337.344 787.096 336.172 788.315C335.008 789.526 333.375 790.131 331.273 790.131C329.258 790.131 327.652 789.51 326.457 788.268C325.27 787.026 324.676 785.346 324.676 783.229C324.676 781.065 325.258 779.385 326.422 778.19C327.594 776.987 329.234 776.385 331.344 776.385C332.648 776.385 333.801 776.663 334.801 777.217C335.801 777.772 336.57 778.569 337.109 779.608C337.656 780.639 337.93 781.846 337.93 783.229ZM329.328 783.229C329.328 784.37 329.48 785.241 329.785 785.842C330.09 786.436 330.602 786.733 331.32 786.733C332.031 786.733 332.531 786.436 332.82 785.842C333.117 785.241 333.266 784.37 333.266 783.229C333.266 782.096 333.117 781.241 332.82 780.663C332.523 780.085 332.016 779.796 331.297 779.796C330.594 779.796 330.09 780.085 329.785 780.663C329.48 781.233 329.328 782.089 329.328 783.229ZM348.57 776.385C348.969 776.385 349.348 776.417 349.707 776.479L349.965 776.526L349.555 780.85C349.18 780.756 348.66 780.71 347.996 780.71C346.996 780.71 346.27 780.94 345.816 781.401C345.363 781.854 345.137 782.51 345.137 783.37V789.897H340.555V776.62H343.965L344.68 778.741H344.902C345.285 778.038 345.816 777.471 346.496 777.042C347.184 776.604 347.875 776.385 348.57 776.385ZM356.27 782.432C356.824 781.549 357.297 780.862 357.688 780.37L360.664 776.62H365.773L361.168 782.268L366.066 789.897H360.828L357.922 785.139L356.434 786.276V789.897H351.828V771.663H356.434V778.835C356.434 780.061 356.348 781.26 356.176 782.432H356.27Z" fill="#333333"/>
<path class="inner" fill-rule="evenodd" clip-rule="evenodd" d="M173.129 484.347C213.569 545.382 275.522 592.465 351.596 612.903C427.707 633.344 504.816 623.616 570.317 591.046C618.076 663.084 635.93 754.559 611.866 844.604C567.397 1010.93 396.619 1109.79 230.721 1065.22C64.8221 1020.65 -33.8004 849.433 10.6684 683.103C34.7325 593.058 95.7989 522.787 173.129 484.347ZM351.522 613.17C434.509 635.453 483.782 721.066 461.566 804.229C439.351 887.392 353.925 936.821 270.976 914.537C188.026 892.254 138.752 806.641 160.968 723.478C183.184 640.311 268.573 590.886 351.522 613.17Z" fill="#F53D52"/>
</g>
</a>
<a href="/services/professional-development/" target="_top">
<g class="button button-1">
<rect x="278" y="156" width="310" height="315" fill="white"/>
<path class="text" d="M370.293 292.547C370.293 294.461 369.727 295.941 368.594 296.988C367.469 298.027 365.867 298.547 363.789 298.547H362.488V304.23H357.859V287.098H363.789C365.953 287.098 367.578 287.57 368.664 288.516C369.75 289.461 370.293 290.805 370.293 292.547ZM362.488 294.773H363.332C364.027 294.773 364.578 294.578 364.984 294.188C365.398 293.797 365.605 293.258 365.605 292.57C365.605 291.414 364.965 290.836 363.684 290.836H362.488V294.773ZM380.77 290.719C381.168 290.719 381.547 290.75 381.906 290.812L382.164 290.859L381.754 295.184C381.379 295.09 380.859 295.043 380.195 295.043C379.195 295.043 378.469 295.273 378.016 295.734C377.562 296.188 377.336 296.844 377.336 297.703V304.23H372.754V290.953H376.164L376.879 293.074H377.102C377.484 292.371 378.016 291.805 378.695 291.375C379.383 290.938 380.074 290.719 380.77 290.719ZM396.707 297.562C396.707 299.734 396.121 301.43 394.949 302.648C393.785 303.859 392.152 304.465 390.051 304.465C388.035 304.465 386.43 303.844 385.234 302.602C384.047 301.359 383.453 299.68 383.453 297.562C383.453 295.398 384.035 293.719 385.199 292.523C386.371 291.32 388.012 290.719 390.121 290.719C391.426 290.719 392.578 290.996 393.578 291.551C394.578 292.105 395.348 292.902 395.887 293.941C396.434 294.973 396.707 296.18 396.707 297.562ZM388.105 297.562C388.105 298.703 388.258 299.574 388.562 300.176C388.867 300.77 389.379 301.066 390.098 301.066C390.809 301.066 391.309 300.77 391.598 300.176C391.895 299.574 392.043 298.703 392.043 297.562C392.043 296.43 391.895 295.574 391.598 294.996C391.301 294.418 390.793 294.129 390.074 294.129C389.371 294.129 388.867 294.418 388.562 294.996C388.258 295.566 388.105 296.422 388.105 297.562ZM407.441 294.387H404.617V304.23H400.035V294.387H398.277V292.137L400.129 291.012V290.789C400.129 289.039 400.484 287.781 401.195 287.016C401.914 286.25 403.062 285.867 404.641 285.867C405.25 285.867 405.824 285.914 406.363 286.008C406.91 286.102 407.543 286.266 408.262 286.5L407.277 289.465C406.715 289.309 406.164 289.23 405.625 289.23C405.273 289.23 405.016 289.34 404.852 289.559C404.695 289.77 404.617 290.117 404.617 290.602V290.953H407.441V294.387ZM415.656 304.465C413.445 304.465 411.727 303.879 410.5 302.707C409.281 301.527 408.672 299.852 408.672 297.68C408.672 295.438 409.238 293.719 410.371 292.523C411.504 291.32 413.121 290.719 415.223 290.719C417.223 290.719 418.766 291.242 419.852 292.289C420.945 293.328 421.492 294.828 421.492 296.789V298.828H413.301C413.332 299.57 413.602 300.152 414.109 300.574C414.625 300.996 415.324 301.207 416.207 301.207C417.012 301.207 417.75 301.133 418.422 300.984C419.102 300.828 419.836 300.566 420.625 300.199V303.492C419.906 303.859 419.164 304.113 418.398 304.254C417.633 304.395 416.719 304.465 415.656 304.465ZM415.387 293.836C414.848 293.836 414.395 294.008 414.027 294.352C413.668 294.688 413.457 295.219 413.395 295.945H417.332C417.316 295.305 417.133 294.793 416.781 294.41C416.438 294.027 415.973 293.836 415.387 293.836ZM434.336 300.152C434.336 301.574 433.852 302.648 432.883 303.375C431.914 304.102 430.523 304.465 428.711 304.465C427.727 304.465 426.871 304.41 426.145 304.301C425.418 304.199 424.676 304.008 423.918 303.727V300.059C424.629 300.371 425.406 300.629 426.25 300.832C427.102 301.035 427.859 301.137 428.523 301.137C429.516 301.137 430.012 300.91 430.012 300.457C430.012 300.223 429.871 300.016 429.59 299.836C429.316 299.648 428.512 299.289 427.176 298.758C425.957 298.258 425.105 297.691 424.621 297.059C424.137 296.418 423.895 295.609 423.895 294.633C423.895 293.398 424.371 292.438 425.324 291.75C426.277 291.062 427.625 290.719 429.367 290.719C430.242 290.719 431.062 290.816 431.828 291.012C432.602 291.199 433.402 291.477 434.23 291.844L432.988 294.797C432.379 294.523 431.734 294.293 431.055 294.105C430.375 293.91 429.82 293.812 429.391 293.812C428.641 293.812 428.266 293.996 428.266 294.363C428.266 294.59 428.395 294.785 428.652 294.949C428.918 295.105 429.676 295.43 430.926 295.922C431.855 296.305 432.547 296.68 433 297.047C433.461 297.414 433.797 297.848 434.008 298.348C434.227 298.84 434.336 299.441 434.336 300.152ZM447.133 300.152C447.133 301.574 446.648 302.648 445.68 303.375C444.711 304.102 443.32 304.465 441.508 304.465C440.523 304.465 439.668 304.41 438.941 304.301C438.215 304.199 437.473 304.008 436.715 303.727V300.059C437.426 300.371 438.203 300.629 439.047 300.832C439.898 301.035 440.656 301.137 441.32 301.137C442.312 301.137 442.809 300.91 442.809 300.457C442.809 300.223 442.668 300.016 442.387 299.836C442.113 299.648 441.309 299.289 439.973 298.758C438.754 298.258 437.902 297.691 437.418 297.059C436.934 296.418 436.691 295.609 436.691 294.633C436.691 293.398 437.168 292.438 438.121 291.75C439.074 291.062 440.422 290.719 442.164 290.719C443.039 290.719 443.859 290.816 444.625 291.012C445.398 291.199 446.199 291.477 447.027 291.844L445.785 294.797C445.176 294.523 444.531 294.293 443.852 294.105C443.172 293.91 442.617 293.812 442.188 293.812C441.438 293.812 441.062 293.996 441.062 294.363C441.062 294.59 441.191 294.785 441.449 294.949C441.715 295.105 442.473 295.43 443.723 295.922C444.652 296.305 445.344 296.68 445.797 297.047C446.258 297.414 446.594 297.848 446.805 298.348C447.023 298.84 447.133 299.441 447.133 300.152ZM454.281 304.23H449.699V290.953H454.281V304.23ZM449.582 287.648C449.582 286.961 449.773 286.449 450.156 286.113C450.539 285.777 451.156 285.609 452.008 285.609C452.859 285.609 453.48 285.781 453.871 286.125C454.262 286.469 454.457 286.977 454.457 287.648C454.457 288.992 453.641 289.664 452.008 289.664C450.391 289.664 449.582 288.992 449.582 287.648ZM470.16 297.562C470.16 299.734 469.574 301.43 468.402 302.648C467.238 303.859 465.605 304.465 463.504 304.465C461.488 304.465 459.883 303.844 458.688 302.602C457.5 301.359 456.906 299.68 456.906 297.562C456.906 295.398 457.488 293.719 458.652 292.523C459.824 291.32 461.465 290.719 463.574 290.719C464.879 290.719 466.031 290.996 467.031 291.551C468.031 292.105 468.801 292.902 469.34 293.941C469.887 294.973 470.16 296.18 470.16 297.562ZM461.559 297.562C461.559 298.703 461.711 299.574 462.016 300.176C462.32 300.77 462.832 301.066 463.551 301.066C464.262 301.066 464.762 300.77 465.051 300.176C465.348 299.574 465.496 298.703 465.496 297.562C465.496 296.43 465.348 295.574 465.051 294.996C464.754 294.418 464.246 294.129 463.527 294.129C462.824 294.129 462.32 294.418 462.016 294.996C461.711 295.566 461.559 296.422 461.559 297.562ZM481.164 304.23V296.988C481.164 296.105 481.035 295.441 480.777 294.996C480.527 294.543 480.121 294.316 479.559 294.316C478.785 294.316 478.227 294.625 477.883 295.242C477.539 295.859 477.367 296.918 477.367 298.418V304.23H472.785V290.953H476.242L476.816 292.594H477.086C477.477 291.969 478.016 291.5 478.703 291.188C479.398 290.875 480.195 290.719 481.094 290.719C482.562 290.719 483.703 291.145 484.516 291.996C485.336 292.848 485.746 294.047 485.746 295.594V304.23H481.164ZM497.523 304.23L496.645 302.473H496.551C495.934 303.238 495.305 303.762 494.664 304.043C494.023 304.324 493.195 304.465 492.18 304.465C490.93 304.465 489.945 304.09 489.227 303.34C488.508 302.59 488.148 301.535 488.148 300.176C488.148 298.762 488.641 297.711 489.625 297.023C490.609 296.328 492.035 295.938 493.902 295.852L496.117 295.781V295.594C496.117 294.5 495.578 293.953 494.5 293.953C493.531 293.953 492.301 294.281 490.809 294.938L489.484 291.914C491.031 291.117 492.984 290.719 495.344 290.719C497.047 290.719 498.363 291.141 499.293 291.984C500.23 292.828 500.699 294.008 500.699 295.523V304.23H497.523ZM494.125 301.23C494.68 301.23 495.152 301.055 495.543 300.703C495.941 300.352 496.141 299.895 496.141 299.332V298.301L495.086 298.348C493.578 298.402 492.824 298.957 492.824 300.012C492.824 300.824 493.258 301.23 494.125 301.23ZM508.398 304.23H503.816V285.996H508.398V304.23ZM366.18 329.301C366.18 332.16 365.391 334.363 363.812 335.91C362.242 337.457 360.031 338.23 357.18 338.23H351.637V321.098H357.566C360.316 321.098 362.438 321.801 363.93 323.207C365.43 324.613 366.18 326.645 366.18 329.301ZM361.375 329.465C361.375 327.895 361.062 326.73 360.438 325.973C359.82 325.215 358.879 324.836 357.613 324.836H356.266V334.434H357.297C358.703 334.434 359.734 334.027 360.391 333.215C361.047 332.395 361.375 331.145 361.375 329.465ZM375.402 338.465C373.191 338.465 371.473 337.879 370.246 336.707C369.027 335.527 368.418 333.852 368.418 331.68C368.418 329.438 368.984 327.719 370.117 326.523C371.25 325.32 372.867 324.719 374.969 324.719C376.969 324.719 378.512 325.242 379.598 326.289C380.691 327.328 381.238 328.828 381.238 330.789V332.828H373.047C373.078 333.57 373.348 334.152 373.855 334.574C374.371 334.996 375.07 335.207 375.953 335.207C376.758 335.207 377.496 335.133 378.168 334.984C378.848 334.828 379.582 334.566 380.371 334.199V337.492C379.652 337.859 378.91 338.113 378.145 338.254C377.379 338.395 376.465 338.465 375.402 338.465ZM375.133 327.836C374.594 327.836 374.141 328.008 373.773 328.352C373.414 328.688 373.203 329.219 373.141 329.945H377.078C377.062 329.305 376.879 328.793 376.527 328.41C376.184 328.027 375.719 327.836 375.133 327.836ZM387.309 338.23L382.246 324.953H387.027L389.277 332.805C389.285 332.844 389.301 332.91 389.324 333.004C389.348 333.098 389.371 333.211 389.395 333.344C389.418 333.469 389.438 333.605 389.453 333.754C389.477 333.895 389.488 334.027 389.488 334.152H389.57C389.57 333.746 389.641 333.305 389.781 332.828L392.137 324.953H396.906L391.844 338.23H387.309ZM404.91 338.465C402.699 338.465 400.98 337.879 399.754 336.707C398.535 335.527 397.926 333.852 397.926 331.68C397.926 329.438 398.492 327.719 399.625 326.523C400.758 325.32 402.375 324.719 404.477 324.719C406.477 324.719 408.02 325.242 409.105 326.289C410.199 327.328 410.746 328.828 410.746 330.789V332.828H402.555C402.586 333.57 402.855 334.152 403.363 334.574C403.879 334.996 404.578 335.207 405.461 335.207C406.266 335.207 407.004 335.133 407.676 334.984C408.355 334.828 409.09 334.566 409.879 334.199V337.492C409.16 337.859 408.418 338.113 407.652 338.254C406.887 338.395 405.973 338.465 404.91 338.465ZM404.641 327.836C404.102 327.836 403.648 328.008 403.281 328.352C402.922 328.688 402.711 329.219 402.648 329.945H406.586C406.57 329.305 406.387 328.793 406.035 328.41C405.691 328.027 405.227 327.836 404.641 327.836ZM417.918 338.23H413.336V319.996H417.918V338.23ZM433.773 331.562C433.773 333.734 433.188 335.43 432.016 336.648C430.852 337.859 429.219 338.465 427.117 338.465C425.102 338.465 423.496 337.844 422.301 336.602C421.113 335.359 420.52 333.68 420.52 331.562C420.52 329.398 421.102 327.719 422.266 326.523C423.438 325.32 425.078 324.719 427.188 324.719C428.492 324.719 429.645 324.996 430.645 325.551C431.645 326.105 432.414 326.902 432.953 327.941C433.5 328.973 433.773 330.18 433.773 331.562ZM425.172 331.562C425.172 332.703 425.324 333.574 425.629 334.176C425.934 334.77 426.445 335.066 427.164 335.066C427.875 335.066 428.375 334.77 428.664 334.176C428.961 333.574 429.109 332.703 429.109 331.562C429.109 330.43 428.961 329.574 428.664 328.996C428.367 328.418 427.859 328.129 427.141 328.129C426.438 328.129 425.934 328.418 425.629 328.996C425.324 329.566 425.172 330.422 425.172 331.562ZM444.367 338.465C443.695 338.465 443.094 338.355 442.562 338.137C442.031 337.91 441.504 337.508 440.98 336.93H440.77C440.91 337.859 440.98 338.438 440.98 338.664V343.996H436.398V324.953H440.125L440.77 326.641H440.98C441.832 325.359 443.008 324.719 444.508 324.719C445.977 324.719 447.129 325.328 447.965 326.547C448.801 327.766 449.219 329.438 449.219 331.562C449.219 333.703 448.781 335.391 447.906 336.625C447.039 337.852 445.859 338.465 444.367 338.465ZM442.832 328.316C442.16 328.316 441.688 328.559 441.414 329.043C441.148 329.52 441.004 330.23 440.98 331.176V331.539C440.98 332.68 441.133 333.504 441.438 334.012C441.742 334.52 442.223 334.773 442.879 334.773C443.465 334.773 443.891 334.523 444.156 334.023C444.422 333.516 444.555 332.68 444.555 331.516C444.555 330.375 444.422 329.559 444.156 329.066C443.891 328.566 443.449 328.316 442.832 328.316ZM468.145 338.23V331.012C468.145 330.113 468.02 329.441 467.77 328.996C467.527 328.543 467.141 328.316 466.609 328.316C465.906 328.316 465.391 328.617 465.062 329.219C464.734 329.82 464.57 330.762 464.57 332.043V338.23H459.977V331.012C459.977 330.113 459.859 329.441 459.625 328.996C459.391 328.543 459.012 328.316 458.488 328.316C457.77 328.316 457.246 328.637 456.918 329.277C456.59 329.918 456.426 330.965 456.426 332.418V338.23H451.844V324.953H455.301L455.875 326.594H456.145C456.496 325.984 457.004 325.52 457.668 325.199C458.34 324.879 459.102 324.719 459.953 324.719C461.867 324.719 463.211 325.301 463.984 326.465H464.348C464.723 325.918 465.242 325.492 465.906 325.188C466.578 324.875 467.316 324.719 468.121 324.719C469.691 324.719 470.852 325.121 471.602 325.926C472.352 326.73 472.727 327.953 472.727 329.594V338.23H468.145ZM482.254 338.465C480.043 338.465 478.324 337.879 477.098 336.707C475.879 335.527 475.27 333.852 475.27 331.68C475.27 329.438 475.836 327.719 476.969 326.523C478.102 325.32 479.719 324.719 481.82 324.719C483.82 324.719 485.363 325.242 486.449 326.289C487.543 327.328 488.09 328.828 488.09 330.789V332.828H479.898C479.93 333.57 480.199 334.152 480.707 334.574C481.223 334.996 481.922 335.207 482.805 335.207C483.609 335.207 484.348 335.133 485.02 334.984C485.699 334.828 486.434 334.566 487.223 334.199V337.492C486.504 337.859 485.762 338.113 484.996 338.254C484.23 338.395 483.316 338.465 482.254 338.465ZM481.984 327.836C481.445 327.836 480.992 328.008 480.625 328.352C480.266 328.688 480.055 329.219 479.992 329.945H483.93C483.914 329.305 483.73 328.793 483.379 328.41C483.035 328.027 482.57 327.836 481.984 327.836ZM499.059 338.23V330.988C499.059 330.105 498.93 329.441 498.672 328.996C498.422 328.543 498.016 328.316 497.453 328.316C496.68 328.316 496.121 328.625 495.777 329.242C495.434 329.859 495.262 330.918 495.262 332.418V338.23H490.68V324.953H494.137L494.711 326.594H494.98C495.371 325.969 495.91 325.5 496.598 325.188C497.293 324.875 498.09 324.719 498.988 324.719C500.457 324.719 501.598 325.145 502.41 325.996C503.23 326.848 503.641 328.047 503.641 329.594V338.23H499.059ZM513.262 334.844C513.879 334.844 514.617 334.691 515.477 334.387V337.727C514.859 337.992 514.27 338.18 513.707 338.289C513.152 338.406 512.5 338.465 511.75 338.465C510.211 338.465 509.102 338.09 508.422 337.34C507.742 336.582 507.402 335.422 507.402 333.859V328.387H505.797V326.523L507.836 325.082L509.02 322.293H512.02V324.953H515.277V328.387H512.02V333.555C512.02 334.414 512.434 334.844 513.262 334.844Z" fill="#333333"/>
<path class="inner" fill-rule="evenodd" clip-rule="evenodd" d="M605.766 571.172C533.795 619.5 442.159 637.651 351.965 613.426C186.066 568.859 87.4805 397.637 131.912 231.307C176.381 64.9776 347.159 -33.8761 513.058 10.6905C603.252 34.9157 673.559 96.5626 711.781 174.504C651.343 215.087 604.731 276.949 584.437 352.867C564.143 428.785 573.68 505.723 605.766 571.172ZM472.803 161.374C555.753 183.657 605.064 269.27 582.848 352.433C560.595 435.6 475.206 485.025 392.256 462.742C309.307 440.459 259.996 354.846 282.212 271.683C304.465 188.52 389.854 139.091 472.803 161.374Z" fill="#FF9200"/>
</g>
</a>
<a href="/services/assessment-and-improvement/" target="_top">
<g class="button button-2">
<circle class="inner" cx="885" cy="433" r="156" fill="white"/>
<path class="text" d="M806.832 403.205C806.832 404.267 806.562 405.213 806.023 406.041C805.484 406.861 804.707 407.502 803.691 407.963C802.676 408.416 801.484 408.642 800.117 408.642C798.977 408.642 798.02 408.564 797.246 408.408C796.473 408.244 795.668 407.963 794.832 407.564V403.439C795.715 403.892 796.633 404.248 797.586 404.505C798.539 404.755 799.414 404.88 800.211 404.88C800.898 404.88 801.402 404.763 801.723 404.529C802.043 404.287 802.203 403.978 802.203 403.603C802.203 403.369 802.137 403.166 802.004 402.994C801.879 402.814 801.672 402.634 801.383 402.455C801.102 402.275 800.344 401.908 799.109 401.353C797.992 400.845 797.152 400.353 796.59 399.877C796.035 399.4 795.621 398.853 795.348 398.236C795.082 397.619 794.949 396.888 794.949 396.045C794.949 394.466 795.523 393.236 796.672 392.353C797.82 391.47 799.398 391.029 801.406 391.029C803.18 391.029 804.988 391.439 806.832 392.259L805.414 395.834C803.812 395.099 802.43 394.732 801.266 394.732C800.664 394.732 800.227 394.838 799.953 395.048C799.68 395.259 799.543 395.521 799.543 395.834C799.543 396.17 799.715 396.47 800.059 396.736C800.41 397.002 801.355 397.486 802.895 398.189C804.371 398.853 805.395 399.568 805.965 400.334C806.543 401.091 806.832 402.048 806.832 403.205ZM815.258 408.642C813.086 408.642 811.438 408.056 810.312 406.884C809.195 405.713 808.637 404.029 808.637 401.834C808.637 399.63 809.242 397.923 810.453 396.713C811.664 395.502 813.387 394.896 815.621 394.896C817.16 394.896 818.609 395.232 819.969 395.904L818.621 399.291C818.066 399.048 817.555 398.857 817.086 398.716C816.617 398.568 816.129 398.494 815.621 398.494C814.879 398.494 814.305 398.783 813.898 399.361C813.492 399.939 813.289 400.755 813.289 401.81C813.289 403.935 814.074 404.998 815.645 404.998C816.988 404.998 818.277 404.607 819.512 403.826V407.47C818.332 408.252 816.914 408.642 815.258 408.642ZM830.504 408.408V401.166C830.504 399.384 829.977 398.494 828.922 398.494C828.172 398.494 827.617 398.81 827.258 399.443C826.906 400.068 826.73 401.111 826.73 402.572V408.408H822.148V390.173H826.73V392.763C826.73 393.935 826.668 395.271 826.543 396.771H826.754C827.191 396.084 827.711 395.599 828.312 395.318C828.914 395.037 829.613 394.896 830.41 394.896C831.895 394.896 833.047 395.326 833.867 396.185C834.695 397.037 835.109 398.232 835.109 399.771V408.408H830.504ZM850.906 401.74C850.906 403.912 850.32 405.607 849.148 406.826C847.984 408.037 846.352 408.642 844.25 408.642C842.234 408.642 840.629 408.021 839.434 406.779C838.246 405.537 837.652 403.857 837.652 401.74C837.652 399.576 838.234 397.896 839.398 396.701C840.57 395.498 842.211 394.896 844.32 394.896C845.625 394.896 846.777 395.173 847.777 395.728C848.777 396.283 849.547 397.08 850.086 398.119C850.633 399.15 850.906 400.357 850.906 401.74ZM842.305 401.74C842.305 402.88 842.457 403.752 842.762 404.353C843.066 404.947 843.578 405.244 844.297 405.244C845.008 405.244 845.508 404.947 845.797 404.353C846.094 403.752 846.242 402.88 846.242 401.74C846.242 400.607 846.094 399.752 845.797 399.173C845.5 398.595 844.992 398.306 844.273 398.306C843.57 398.306 843.066 398.595 842.762 399.173C842.457 399.744 842.305 400.599 842.305 401.74ZM866.211 401.74C866.211 403.912 865.625 405.607 864.453 406.826C863.289 408.037 861.656 408.642 859.555 408.642C857.539 408.642 855.934 408.021 854.738 406.779C853.551 405.537 852.957 403.857 852.957 401.74C852.957 399.576 853.539 397.896 854.703 396.701C855.875 395.498 857.516 394.896 859.625 394.896C860.93 394.896 862.082 395.173 863.082 395.728C864.082 396.283 864.852 397.08 865.391 398.119C865.938 399.15 866.211 400.357 866.211 401.74ZM857.609 401.74C857.609 402.88 857.762 403.752 858.066 404.353C858.371 404.947 858.883 405.244 859.602 405.244C860.312 405.244 860.812 404.947 861.102 404.353C861.398 403.752 861.547 402.88 861.547 401.74C861.547 400.607 861.398 399.752 861.102 399.173C860.805 398.595 860.297 398.306 859.578 398.306C858.875 398.306 858.371 398.595 858.066 399.173C857.762 399.744 857.609 400.599 857.609 401.74ZM873.418 408.408H868.836V390.173H873.418V408.408ZM890.727 394.826C889.625 394.826 888.766 395.279 888.148 396.185C887.531 397.084 887.223 398.326 887.223 399.912C887.223 403.209 888.477 404.857 890.984 404.857C891.742 404.857 892.477 404.752 893.188 404.541C893.898 404.33 894.613 404.076 895.332 403.779V407.693C893.902 408.326 892.285 408.642 890.48 408.642C887.895 408.642 885.91 407.892 884.527 406.392C883.152 404.892 882.465 402.724 882.465 399.888C882.465 398.115 882.797 396.556 883.461 395.213C884.133 393.869 885.094 392.838 886.344 392.119C887.602 391.392 889.078 391.029 890.773 391.029C892.625 391.029 894.395 391.431 896.082 392.236L894.664 395.88C894.031 395.584 893.398 395.334 892.766 395.13C892.133 394.927 891.453 394.826 890.727 394.826ZM902.996 408.408H898.414V390.173H902.996V408.408ZM910.777 408.408H906.195V395.13H910.777V408.408ZM906.078 391.826C906.078 391.138 906.27 390.627 906.652 390.291C907.035 389.955 907.652 389.787 908.504 389.787C909.355 389.787 909.977 389.959 910.367 390.302C910.758 390.646 910.953 391.154 910.953 391.826C910.953 393.17 910.137 393.841 908.504 393.841C906.887 393.841 906.078 393.17 906.078 391.826ZM930.277 408.408V401.189C930.277 400.291 930.152 399.619 929.902 399.173C929.66 398.72 929.273 398.494 928.742 398.494C928.039 398.494 927.523 398.795 927.195 399.396C926.867 399.998 926.703 400.939 926.703 402.22V408.408H922.109V401.189C922.109 400.291 921.992 399.619 921.758 399.173C921.523 398.72 921.145 398.494 920.621 398.494C919.902 398.494 919.379 398.814 919.051 399.455C918.723 400.095 918.559 401.142 918.559 402.595V408.408H913.977V395.13H917.434L918.008 396.771H918.277C918.629 396.162 919.137 395.697 919.801 395.377C920.473 395.056 921.234 394.896 922.086 394.896C924 394.896 925.344 395.478 926.117 396.642H926.48C926.855 396.095 927.375 395.67 928.039 395.365C928.711 395.052 929.449 394.896 930.254 394.896C931.824 394.896 932.984 395.298 933.734 396.103C934.484 396.908 934.859 398.13 934.859 399.771V408.408H930.277ZM946.637 408.408L945.758 406.65H945.664C945.047 407.416 944.418 407.939 943.777 408.22C943.137 408.502 942.309 408.642 941.293 408.642C940.043 408.642 939.059 408.267 938.34 407.517C937.621 406.767 937.262 405.713 937.262 404.353C937.262 402.939 937.754 401.888 938.738 401.201C939.723 400.505 941.148 400.115 943.016 400.029L945.23 399.959V399.771C945.23 398.677 944.691 398.13 943.613 398.13C942.645 398.13 941.414 398.459 939.922 399.115L938.598 396.091C940.145 395.295 942.098 394.896 944.457 394.896C946.16 394.896 947.477 395.318 948.406 396.162C949.344 397.005 949.812 398.185 949.812 399.701V408.408H946.637ZM943.238 405.408C943.793 405.408 944.266 405.232 944.656 404.88C945.055 404.529 945.254 404.072 945.254 403.509V402.478L944.199 402.525C942.691 402.58 941.938 403.134 941.938 404.189C941.938 405.002 942.371 405.408 943.238 405.408ZM959.434 405.021C960.051 405.021 960.789 404.869 961.648 404.564V407.904C961.031 408.17 960.441 408.357 959.879 408.466C959.324 408.584 958.672 408.642 957.922 408.642C956.383 408.642 955.273 408.267 954.594 407.517C953.914 406.759 953.574 405.599 953.574 404.037V398.564H951.969V396.701L954.008 395.259L955.191 392.47H958.191V395.13H961.449V398.564H958.191V403.732C958.191 404.591 958.605 405.021 959.434 405.021ZM970.379 408.642C968.168 408.642 966.449 408.056 965.223 406.884C964.004 405.705 963.395 404.029 963.395 401.857C963.395 399.615 963.961 397.896 965.094 396.701C966.227 395.498 967.844 394.896 969.945 394.896C971.945 394.896 973.488 395.42 974.574 396.466C975.668 397.505 976.215 399.005 976.215 400.966V403.005H968.023C968.055 403.748 968.324 404.33 968.832 404.752C969.348 405.173 970.047 405.384 970.93 405.384C971.734 405.384 972.473 405.31 973.145 405.162C973.824 405.005 974.559 404.744 975.348 404.377V407.67C974.629 408.037 973.887 408.291 973.121 408.431C972.355 408.572 971.441 408.642 970.379 408.642ZM970.109 398.013C969.57 398.013 969.117 398.185 968.75 398.529C968.391 398.865 968.18 399.396 968.117 400.123H972.055C972.039 399.482 971.855 398.97 971.504 398.588C971.16 398.205 970.695 398.013 970.109 398.013ZM793.684 442.408L792.84 439.197H787.273L786.406 442.408H781.32L786.91 425.205H793.086L798.746 442.408H793.684ZM791.879 435.4L791.141 432.588C790.969 431.963 790.758 431.154 790.508 430.162C790.266 429.17 790.105 428.459 790.027 428.029C789.957 428.427 789.816 429.084 789.605 429.998C789.402 430.912 788.945 432.713 788.234 435.4H791.879ZM810.594 438.33C810.594 439.752 810.109 440.826 809.141 441.552C808.172 442.279 806.781 442.642 804.969 442.642C803.984 442.642 803.129 442.588 802.402 442.478C801.676 442.377 800.934 442.185 800.176 441.904V438.236C800.887 438.548 801.664 438.806 802.508 439.009C803.359 439.213 804.117 439.314 804.781 439.314C805.773 439.314 806.27 439.088 806.27 438.634C806.27 438.4 806.129 438.193 805.848 438.013C805.574 437.826 804.77 437.466 803.434 436.935C802.215 436.435 801.363 435.869 800.879 435.236C800.395 434.595 800.152 433.787 800.152 432.81C800.152 431.576 800.629 430.615 801.582 429.927C802.535 429.24 803.883 428.896 805.625 428.896C806.5 428.896 807.32 428.994 808.086 429.189C808.859 429.377 809.66 429.654 810.488 430.021L809.246 432.974C808.637 432.701 807.992 432.47 807.312 432.283C806.633 432.088 806.078 431.99 805.648 431.99C804.898 431.99 804.523 432.173 804.523 432.541C804.523 432.767 804.652 432.963 804.91 433.127C805.176 433.283 805.934 433.607 807.184 434.099C808.113 434.482 808.805 434.857 809.258 435.224C809.719 435.591 810.055 436.025 810.266 436.525C810.484 437.017 810.594 437.619 810.594 438.33ZM823.391 438.33C823.391 439.752 822.906 440.826 821.938 441.552C820.969 442.279 819.578 442.642 817.766 442.642C816.781 442.642 815.926 442.588 815.199 442.478C814.473 442.377 813.73 442.185 812.973 441.904V438.236C813.684 438.548 814.461 438.806 815.305 439.009C816.156 439.213 816.914 439.314 817.578 439.314C818.57 439.314 819.066 439.088 819.066 438.634C819.066 438.4 818.926 438.193 818.645 438.013C818.371 437.826 817.566 437.466 816.23 436.935C815.012 436.435 814.16 435.869 813.676 435.236C813.191 434.595 812.949 433.787 812.949 432.81C812.949 431.576 813.426 430.615 814.379 429.927C815.332 429.24 816.68 428.896 818.422 428.896C819.297 428.896 820.117 428.994 820.883 429.189C821.656 429.377 822.457 429.654 823.285 430.021L822.043 432.974C821.434 432.701 820.789 432.47 820.109 432.283C819.43 432.088 818.875 431.99 818.445 431.99C817.695 431.99 817.32 432.173 817.32 432.541C817.32 432.767 817.449 432.963 817.707 433.127C817.973 433.283 818.73 433.607 819.98 434.099C820.91 434.482 821.602 434.857 822.055 435.224C822.516 435.591 822.852 436.025 823.062 436.525C823.281 437.017 823.391 437.619 823.391 438.33ZM832.344 442.642C830.133 442.642 828.414 442.056 827.188 440.884C825.969 439.705 825.359 438.029 825.359 435.857C825.359 433.615 825.926 431.896 827.059 430.701C828.191 429.498 829.809 428.896 831.91 428.896C833.91 428.896 835.453 429.42 836.539 430.466C837.633 431.505 838.18 433.005 838.18 434.966V437.005H829.988C830.02 437.748 830.289 438.33 830.797 438.752C831.312 439.173 832.012 439.384 832.895 439.384C833.699 439.384 834.438 439.31 835.109 439.162C835.789 439.005 836.523 438.744 837.312 438.377V441.67C836.594 442.037 835.852 442.291 835.086 442.431C834.32 442.572 833.406 442.642 832.344 442.642ZM832.074 432.013C831.535 432.013 831.082 432.185 830.715 432.529C830.355 432.865 830.145 433.396 830.082 434.123H834.02C834.004 433.482 833.82 432.97 833.469 432.588C833.125 432.205 832.66 432.013 832.074 432.013ZM851.023 438.33C851.023 439.752 850.539 440.826 849.57 441.552C848.602 442.279 847.211 442.642 845.398 442.642C844.414 442.642 843.559 442.588 842.832 442.478C842.105 442.377 841.363 442.185 840.605 441.904V438.236C841.316 438.548 842.094 438.806 842.938 439.009C843.789 439.213 844.547 439.314 845.211 439.314C846.203 439.314 846.699 439.088 846.699 438.634C846.699 438.4 846.559 438.193 846.277 438.013C846.004 437.826 845.199 437.466 843.863 436.935C842.645 436.435 841.793 435.869 841.309 435.236C840.824 434.595 840.582 433.787 840.582 432.81C840.582 431.576 841.059 430.615 842.012 429.927C842.965 429.24 844.312 428.896 846.055 428.896C846.93 428.896 847.75 428.994 848.516 429.189C849.289 429.377 850.09 429.654 850.918 430.021L849.676 432.974C849.066 432.701 848.422 432.47 847.742 432.283C847.062 432.088 846.508 431.99 846.078 431.99C845.328 431.99 844.953 432.173 844.953 432.541C844.953 432.767 845.082 432.963 845.34 433.127C845.605 433.283 846.363 433.607 847.613 434.099C848.543 434.482 849.234 434.857 849.688 435.224C850.148 435.591 850.484 436.025 850.695 436.525C850.914 437.017 851.023 437.619 851.023 438.33ZM863.82 438.33C863.82 439.752 863.336 440.826 862.367 441.552C861.398 442.279 860.008 442.642 858.195 442.642C857.211 442.642 856.355 442.588 855.629 442.478C854.902 442.377 854.16 442.185 853.402 441.904V438.236C854.113 438.548 854.891 438.806 855.734 439.009C856.586 439.213 857.344 439.314 858.008 439.314C859 439.314 859.496 439.088 859.496 438.634C859.496 438.4 859.355 438.193 859.074 438.013C858.801 437.826 857.996 437.466 856.66 436.935C855.441 436.435 854.59 435.869 854.105 435.236C853.621 434.595 853.379 433.787 853.379 432.81C853.379 431.576 853.855 430.615 854.809 429.927C855.762 429.24 857.109 428.896 858.852 428.896C859.727 428.896 860.547 428.994 861.312 429.189C862.086 429.377 862.887 429.654 863.715 430.021L862.473 432.974C861.863 432.701 861.219 432.47 860.539 432.283C859.859 432.088 859.305 431.99 858.875 431.99C858.125 431.99 857.75 432.173 857.75 432.541C857.75 432.767 857.879 432.963 858.137 433.127C858.402 433.283 859.16 433.607 860.41 434.099C861.34 434.482 862.031 434.857 862.484 435.224C862.945 435.591 863.281 436.025 863.492 436.525C863.711 437.017 863.82 437.619 863.82 438.33ZM882.664 442.408V435.189C882.664 434.291 882.539 433.619 882.289 433.173C882.047 432.72 881.66 432.494 881.129 432.494C880.426 432.494 879.91 432.795 879.582 433.396C879.254 433.998 879.09 434.939 879.09 436.22V442.408H874.496V435.189C874.496 434.291 874.379 433.619 874.145 433.173C873.91 432.72 873.531 432.494 873.008 432.494C872.289 432.494 871.766 432.814 871.438 433.455C871.109 434.095 870.945 435.142 870.945 436.595V442.408H866.363V429.13H869.82L870.395 430.771H870.664C871.016 430.162 871.523 429.697 872.188 429.377C872.859 429.056 873.621 428.896 874.473 428.896C876.387 428.896 877.73 429.478 878.504 430.642H878.867C879.242 430.095 879.762 429.67 880.426 429.365C881.098 429.052 881.836 428.896 882.641 428.896C884.211 428.896 885.371 429.298 886.121 430.103C886.871 430.908 887.246 432.13 887.246 433.771V442.408H882.664ZM896.773 442.642C894.562 442.642 892.844 442.056 891.617 440.884C890.398 439.705 889.789 438.029 889.789 435.857C889.789 433.615 890.355 431.896 891.488 430.701C892.621 429.498 894.238 428.896 896.34 428.896C898.34 428.896 899.883 429.42 900.969 430.466C902.062 431.505 902.609 433.005 902.609 434.966V437.005H894.418C894.449 437.748 894.719 438.33 895.227 438.752C895.742 439.173 896.441 439.384 897.324 439.384C898.129 439.384 898.867 439.31 899.539 439.162C900.219 439.005 900.953 438.744 901.742 438.377V441.67C901.023 442.037 900.281 442.291 899.516 442.431C898.75 442.572 897.836 442.642 896.773 442.642ZM896.504 432.013C895.965 432.013 895.512 432.185 895.145 432.529C894.785 432.865 894.574 433.396 894.512 434.123H898.449C898.434 433.482 898.25 432.97 897.898 432.588C897.555 432.205 897.09 432.013 896.504 432.013ZM913.578 442.408V435.166C913.578 434.283 913.449 433.619 913.191 433.173C912.941 432.72 912.535 432.494 911.973 432.494C911.199 432.494 910.641 432.802 910.297 433.42C909.953 434.037 909.781 435.095 909.781 436.595V442.408H905.199V429.13H908.656L909.23 430.771H909.5C909.891 430.146 910.43 429.677 911.117 429.365C911.812 429.052 912.609 428.896 913.508 428.896C914.977 428.896 916.117 429.322 916.93 430.173C917.75 431.025 918.16 432.224 918.16 433.771V442.408H913.578ZM927.781 439.021C928.398 439.021 929.137 438.869 929.996 438.564V441.904C929.379 442.17 928.789 442.357 928.227 442.466C927.672 442.584 927.02 442.642 926.27 442.642C924.73 442.642 923.621 442.267 922.941 441.517C922.262 440.759 921.922 439.599 921.922 438.037V432.564H920.316V430.701L922.355 429.259L923.539 426.47H926.539V429.13H929.797V432.564H926.539V437.732C926.539 438.591 926.953 439.021 927.781 439.021ZM947.211 442.408L946.332 440.65H946.238C945.621 441.416 944.992 441.939 944.352 442.22C943.711 442.502 942.883 442.642 941.867 442.642C940.617 442.642 939.633 442.267 938.914 441.517C938.195 440.767 937.836 439.713 937.836 438.353C937.836 436.939 938.328 435.888 939.312 435.201C940.297 434.505 941.723 434.115 943.59 434.029L945.805 433.959V433.771C945.805 432.677 945.266 432.13 944.188 432.13C943.219 432.13 941.988 432.459 940.496 433.115L939.172 430.091C940.719 429.295 942.672 428.896 945.031 428.896C946.734 428.896 948.051 429.318 948.98 430.162C949.918 431.005 950.387 432.185 950.387 433.701V442.408H947.211ZM943.812 439.408C944.367 439.408 944.84 439.232 945.23 438.88C945.629 438.529 945.828 438.072 945.828 437.509V436.478L944.773 436.525C943.266 436.58 942.512 437.134 942.512 438.189C942.512 439.002 942.945 439.408 943.812 439.408ZM961.883 442.408V435.166C961.883 434.283 961.754 433.619 961.496 433.173C961.246 432.72 960.84 432.494 960.277 432.494C959.504 432.494 958.945 432.802 958.602 433.42C958.258 434.037 958.086 435.095 958.086 436.595V442.408H953.504V429.13H956.961L957.535 430.771H957.805C958.195 430.146 958.734 429.677 959.422 429.365C960.117 429.052 960.914 428.896 961.812 428.896C963.281 428.896 964.422 429.322 965.234 430.173C966.055 431.025 966.465 432.224 966.465 433.771V442.408H961.883ZM973.707 442.642C972.762 442.642 971.934 442.373 971.223 441.834C970.52 441.295 969.973 440.502 969.582 439.455C969.199 438.408 969.008 437.185 969.008 435.787C969.008 433.63 969.441 431.943 970.309 430.724C971.176 429.505 972.367 428.896 973.883 428.896C974.625 428.896 975.273 429.045 975.828 429.341C976.391 429.638 976.902 430.138 977.363 430.841H977.457C977.309 429.802 977.234 428.763 977.234 427.724V424.173H981.852V442.408H978.395L977.41 440.732H977.234C976.445 442.005 975.27 442.642 973.707 442.642ZM975.582 439.021C976.316 439.021 976.832 438.791 977.129 438.33C977.434 437.869 977.598 437.158 977.621 436.197V435.834C977.621 434.662 977.453 433.83 977.117 433.338C976.781 432.838 976.254 432.588 975.535 432.588C974.934 432.588 974.465 432.873 974.129 433.443C973.801 434.005 973.637 434.81 973.637 435.857C973.637 436.888 973.805 437.673 974.141 438.213C974.477 438.752 974.957 439.021 975.582 439.021ZM751.754 476.408V459.275H756.406V476.408H751.754ZM776.152 476.408V469.189C776.152 468.291 776.027 467.619 775.777 467.173C775.535 466.72 775.148 466.494 774.617 466.494C773.914 466.494 773.398 466.795 773.07 467.396C772.742 467.998 772.578 468.939 772.578 470.22V476.408H767.984V469.189C767.984 468.291 767.867 467.619 767.633 467.173C767.398 466.72 767.02 466.494 766.496 466.494C765.777 466.494 765.254 466.814 764.926 467.455C764.598 468.095 764.434 469.142 764.434 470.595V476.408H759.852V463.13H763.309L763.883 464.771H764.152C764.504 464.162 765.012 463.697 765.676 463.377C766.348 463.056 767.109 462.896 767.961 462.896C769.875 462.896 771.219 463.478 771.992 464.642H772.355C772.73 464.095 773.25 463.67 773.914 463.365C774.586 463.052 775.324 462.896 776.129 462.896C777.699 462.896 778.859 463.298 779.609 464.103C780.359 464.908 780.734 466.13 780.734 467.771V476.408H776.152ZM791.82 476.642C791.148 476.642 790.547 476.533 790.016 476.314C789.484 476.088 788.957 475.685 788.434 475.107H788.223C788.363 476.037 788.434 476.615 788.434 476.841V482.173H783.852V463.13H787.578L788.223 464.818H788.434C789.285 463.537 790.461 462.896 791.961 462.896C793.43 462.896 794.582 463.505 795.418 464.724C796.254 465.943 796.672 467.615 796.672 469.74C796.672 471.88 796.234 473.568 795.359 474.802C794.492 476.029 793.312 476.642 791.82 476.642ZM790.285 466.494C789.613 466.494 789.141 466.736 788.867 467.22C788.602 467.697 788.457 468.408 788.434 469.353V469.716C788.434 470.857 788.586 471.681 788.891 472.189C789.195 472.697 789.676 472.951 790.332 472.951C790.918 472.951 791.344 472.701 791.609 472.201C791.875 471.693 792.008 470.857 792.008 469.693C792.008 468.552 791.875 467.736 791.609 467.244C791.344 466.744 790.902 466.494 790.285 466.494ZM807.312 462.896C807.711 462.896 808.09 462.927 808.449 462.99L808.707 463.037L808.297 467.361C807.922 467.267 807.402 467.22 806.738 467.22C805.738 467.22 805.012 467.451 804.559 467.912C804.105 468.365 803.879 469.021 803.879 469.88V476.408H799.297V463.13H802.707L803.422 465.252H803.645C804.027 464.548 804.559 463.982 805.238 463.552C805.926 463.115 806.617 462.896 807.312 462.896ZM823.25 469.74C823.25 471.912 822.664 473.607 821.492 474.826C820.328 476.037 818.695 476.642 816.594 476.642C814.578 476.642 812.973 476.021 811.777 474.779C810.59 473.537 809.996 471.857 809.996 469.74C809.996 467.576 810.578 465.896 811.742 464.701C812.914 463.498 814.555 462.896 816.664 462.896C817.969 462.896 819.121 463.173 820.121 463.728C821.121 464.283 821.891 465.08 822.43 466.119C822.977 467.15 823.25 468.357 823.25 469.74ZM814.648 469.74C814.648 470.88 814.801 471.752 815.105 472.353C815.41 472.947 815.922 473.244 816.641 473.244C817.352 473.244 817.852 472.947 818.141 472.353C818.438 471.752 818.586 470.88 818.586 469.74C818.586 468.607 818.438 467.752 818.141 467.173C817.844 466.595 817.336 466.306 816.617 466.306C815.914 466.306 815.41 466.595 815.105 467.173C814.801 467.744 814.648 468.599 814.648 469.74ZM829.355 476.408L824.293 463.13H829.074L831.324 470.982C831.332 471.021 831.348 471.088 831.371 471.181C831.395 471.275 831.418 471.388 831.441 471.521C831.465 471.646 831.484 471.783 831.5 471.931C831.523 472.072 831.535 472.205 831.535 472.33H831.617C831.617 471.923 831.688 471.482 831.828 471.005L834.184 463.13H838.953L833.891 476.408H829.355ZM846.957 476.642C844.746 476.642 843.027 476.056 841.801 474.884C840.582 473.705 839.973 472.029 839.973 469.857C839.973 467.615 840.539 465.896 841.672 464.701C842.805 463.498 844.422 462.896 846.523 462.896C848.523 462.896 850.066 463.42 851.152 464.466C852.246 465.505 852.793 467.005 852.793 468.966V471.005H844.602C844.633 471.748 844.902 472.33 845.41 472.752C845.926 473.173 846.625 473.384 847.508 473.384C848.312 473.384 849.051 473.31 849.723 473.162C850.402 473.005 851.137 472.744 851.926 472.377V475.67C851.207 476.037 850.465 476.291 849.699 476.431C848.934 476.572 848.02 476.642 846.957 476.642ZM846.688 466.013C846.148 466.013 845.695 466.185 845.328 466.529C844.969 466.865 844.758 467.396 844.695 468.123H848.633C848.617 467.482 848.434 466.97 848.082 466.588C847.738 466.205 847.273 466.013 846.688 466.013ZM871.684 476.408V469.189C871.684 468.291 871.559 467.619 871.309 467.173C871.066 466.72 870.68 466.494 870.148 466.494C869.445 466.494 868.93 466.795 868.602 467.396C868.273 467.998 868.109 468.939 868.109 470.22V476.408H863.516V469.189C863.516 468.291 863.398 467.619 863.164 467.173C862.93 466.72 862.551 466.494 862.027 466.494C861.309 466.494 860.785 466.814 860.457 467.455C860.129 468.095 859.965 469.142 859.965 470.595V476.408H855.383V463.13H858.84L859.414 464.771H859.684C860.035 464.162 860.543 463.697 861.207 463.377C861.879 463.056 862.641 462.896 863.492 462.896C865.406 462.896 866.75 463.478 867.523 464.642H867.887C868.262 464.095 868.781 463.67 869.445 463.365C870.117 463.052 870.855 462.896 871.66 462.896C873.23 462.896 874.391 463.298 875.141 464.103C875.891 464.908 876.266 466.13 876.266 467.771V476.408H871.684ZM885.793 476.642C883.582 476.642 881.863 476.056 880.637 474.884C879.418 473.705 878.809 472.029 878.809 469.857C878.809 467.615 879.375 465.896 880.508 464.701C881.641 463.498 883.258 462.896 885.359 462.896C887.359 462.896 888.902 463.42 889.988 464.466C891.082 465.505 891.629 467.005 891.629 468.966V471.005H883.438C883.469 471.748 883.738 472.33 884.246 472.752C884.762 473.173 885.461 473.384 886.344 473.384C887.148 473.384 887.887 473.31 888.559 473.162C889.238 473.005 889.973 472.744 890.762 472.377V475.67C890.043 476.037 889.301 476.291 888.535 476.431C887.77 476.572 886.855 476.642 885.793 476.642ZM885.523 466.013C884.984 466.013 884.531 466.185 884.164 466.529C883.805 466.865 883.594 467.396 883.531 468.123H887.469C887.453 467.482 887.27 466.97 886.918 466.588C886.574 466.205 886.109 466.013 885.523 466.013ZM902.598 476.408V469.166C902.598 468.283 902.469 467.619 902.211 467.173C901.961 466.72 901.555 466.494 900.992 466.494C900.219 466.494 899.66 466.802 899.316 467.42C898.973 468.037 898.801 469.095 898.801 470.595V476.408H894.219V463.13H897.676L898.25 464.771H898.52C898.91 464.146 899.449 463.677 900.137 463.365C900.832 463.052 901.629 462.896 902.527 462.896C903.996 462.896 905.137 463.322 905.949 464.173C906.77 465.025 907.18 466.224 907.18 467.771V476.408H902.598ZM916.801 473.021C917.418 473.021 918.156 472.869 919.016 472.564V475.904C918.398 476.17 917.809 476.357 917.246 476.466C916.691 476.584 916.039 476.642 915.289 476.642C913.75 476.642 912.641 476.267 911.961 475.517C911.281 474.759 910.941 473.599 910.941 472.037V466.564H909.336V464.701L911.375 463.259L912.559 460.47H915.559V463.13H918.816V466.564H915.559V471.732C915.559 472.591 915.973 473.021 916.801 473.021ZM940.273 464.724C940.273 466.638 939.707 468.119 938.574 469.166C937.449 470.205 935.848 470.724 933.77 470.724H932.469V476.408H927.84V459.275H933.77C935.934 459.275 937.559 459.748 938.645 460.693C939.73 461.638 940.273 462.982 940.273 464.724ZM932.469 466.951H933.312C934.008 466.951 934.559 466.755 934.965 466.365C935.379 465.974 935.586 465.435 935.586 464.748C935.586 463.591 934.945 463.013 933.664 463.013H932.469V466.951ZM950.75 462.896C951.148 462.896 951.527 462.927 951.887 462.99L952.145 463.037L951.734 467.361C951.359 467.267 950.84 467.22 950.176 467.22C949.176 467.22 948.449 467.451 947.996 467.912C947.543 468.365 947.316 469.021 947.316 469.88V476.408H942.734V463.13H946.145L946.859 465.252H947.082C947.465 464.548 947.996 463.982 948.676 463.552C949.363 463.115 950.055 462.896 950.75 462.896ZM966.688 469.74C966.688 471.912 966.102 473.607 964.93 474.826C963.766 476.037 962.133 476.642 960.031 476.642C958.016 476.642 956.41 476.021 955.215 474.779C954.027 473.537 953.434 471.857 953.434 469.74C953.434 467.576 954.016 465.896 955.18 464.701C956.352 463.498 957.992 462.896 960.102 462.896C961.406 462.896 962.559 463.173 963.559 463.728C964.559 464.283 965.328 465.08 965.867 466.119C966.414 467.15 966.688 468.357 966.688 469.74ZM958.086 469.74C958.086 470.88 958.238 471.752 958.543 472.353C958.848 472.947 959.359 473.244 960.078 473.244C960.789 473.244 961.289 472.947 961.578 472.353C961.875 471.752 962.023 470.88 962.023 469.74C962.023 468.607 961.875 467.752 961.578 467.173C961.281 466.595 960.773 466.306 960.055 466.306C959.352 466.306 958.848 466.595 958.543 467.173C958.238 467.744 958.086 468.599 958.086 469.74ZM975.359 476.642C973.188 476.642 971.539 476.056 970.414 474.884C969.297 473.713 968.738 472.029 968.738 469.834C968.738 467.63 969.344 465.923 970.555 464.713C971.766 463.502 973.488 462.896 975.723 462.896C977.262 462.896 978.711 463.232 980.07 463.904L978.723 467.291C978.168 467.048 977.656 466.857 977.188 466.716C976.719 466.568 976.23 466.494 975.723 466.494C974.98 466.494 974.406 466.783 974 467.361C973.594 467.939 973.391 468.755 973.391 469.81C973.391 471.935 974.176 472.998 975.746 472.998C977.09 472.998 978.379 472.607 979.613 471.826V475.47C978.434 476.252 977.016 476.642 975.359 476.642ZM988.66 476.642C986.449 476.642 984.73 476.056 983.504 474.884C982.285 473.705 981.676 472.029 981.676 469.857C981.676 467.615 982.242 465.896 983.375 464.701C984.508 463.498 986.125 462.896 988.227 462.896C990.227 462.896 991.77 463.42 992.855 464.466C993.949 465.505 994.496 467.005 994.496 468.966V471.005H986.305C986.336 471.748 986.605 472.33 987.113 472.752C987.629 473.173 988.328 473.384 989.211 473.384C990.016 473.384 990.754 473.31 991.426 473.162C992.105 473.005 992.84 472.744 993.629 472.377V475.67C992.91 476.037 992.168 476.291 991.402 476.431C990.637 476.572 989.723 476.642 988.66 476.642ZM988.391 466.013C987.852 466.013 987.398 466.185 987.031 466.529C986.672 466.865 986.461 467.396 986.398 468.123H990.336C990.32 467.482 990.137 466.97 989.785 466.588C989.441 466.205 988.977 466.013 988.391 466.013ZM1007.34 472.33C1007.34 473.752 1006.86 474.826 1005.89 475.552C1004.92 476.279 1003.53 476.642 1001.71 476.642C1000.73 476.642 999.875 476.588 999.148 476.478C998.422 476.377 997.68 476.185 996.922 475.904V472.236C997.633 472.548 998.41 472.806 999.254 473.009C1000.11 473.213 1000.86 473.314 1001.53 473.314C1002.52 473.314 1003.02 473.088 1003.02 472.634C1003.02 472.4 1002.88 472.193 1002.59 472.013C1002.32 471.826 1001.52 471.466 1000.18 470.935C998.961 470.435 998.109 469.869 997.625 469.236C997.141 468.595 996.898 467.787 996.898 466.81C996.898 465.576 997.375 464.615 998.328 463.927C999.281 463.24 1000.63 462.896 1002.37 462.896C1003.25 462.896 1004.07 462.994 1004.83 463.189C1005.61 463.377 1006.41 463.654 1007.23 464.021L1005.99 466.974C1005.38 466.701 1004.74 466.47 1004.06 466.283C1003.38 466.088 1002.82 465.99 1002.39 465.99C1001.64 465.99 1001.27 466.173 1001.27 466.541C1001.27 466.767 1001.4 466.963 1001.66 467.127C1001.92 467.283 1002.68 467.607 1003.93 468.099C1004.86 468.482 1005.55 468.857 1006 469.224C1006.46 469.591 1006.8 470.025 1007.01 470.525C1007.23 471.017 1007.34 471.619 1007.34 472.33ZM1020.14 472.33C1020.14 473.752 1019.65 474.826 1018.68 475.552C1017.71 476.279 1016.32 476.642 1014.51 476.642C1013.53 476.642 1012.67 476.588 1011.95 476.478C1011.22 476.377 1010.48 476.185 1009.72 475.904V472.236C1010.43 472.548 1011.21 472.806 1012.05 473.009C1012.9 473.213 1013.66 473.314 1014.32 473.314C1015.32 473.314 1015.81 473.088 1015.81 472.634C1015.81 472.4 1015.67 472.193 1015.39 472.013C1015.12 471.826 1014.31 471.466 1012.98 470.935C1011.76 470.435 1010.91 469.869 1010.42 469.236C1009.94 468.595 1009.7 467.787 1009.7 466.81C1009.7 465.576 1010.17 464.615 1011.12 463.927C1012.08 463.24 1013.43 462.896 1015.17 462.896C1016.04 462.896 1016.86 462.994 1017.63 463.189C1018.4 463.377 1019.2 463.654 1020.03 464.021L1018.79 466.974C1018.18 466.701 1017.54 466.47 1016.86 466.283C1016.18 466.088 1015.62 465.99 1015.19 465.99C1014.44 465.99 1014.07 466.173 1014.07 466.541C1014.07 466.767 1014.2 466.963 1014.45 467.127C1014.72 467.283 1015.48 467.607 1016.73 468.099C1017.66 468.482 1018.35 468.857 1018.8 469.224C1019.26 469.591 1019.6 470.025 1019.81 470.525C1020.03 471.017 1020.14 471.619 1020.14 472.33Z" fill="#333333"/>
<path class="inner" fill-rule="evenodd" clip-rule="evenodd" d="M625.683 606.27C577.924 534.232 560.07 442.753 584.134 352.712C628.566 186.382 799.381 87.528 965.28 132.095C1131.18 176.661 1229.8 347.883 1185.33 514.213C1161.27 604.258 1100.16 674.524 1022.87 712.969C982.431 651.933 920.478 604.85 844.404 584.409C768.293 563.971 691.185 573.699 625.683 606.27ZM925.025 282.778C1007.97 305.062 1057.25 390.674 1035.03 473.837C1012.82 557 927.428 606.429 844.478 584.146C761.492 561.863 712.218 476.25 734.434 393.087C756.649 309.92 842.039 260.495 925.025 282.778Z" fill="#44C5CB"/>
</g>
</a>
</svg>
