<svg width="74" height="73" viewBox="0 0 74 73" fill="none" xmlns="http://www.w3.org/2000/svg">
<path fill-rule="evenodd" clip-rule="evenodd" d="M37.6787 34.9352C33.2753 37.8336 27.6688 38.9221 22.1504 37.4693C12.0002 34.7965 5.96838 24.5279 8.68686 14.5527C11.4076 4.57742 21.8564 -1.3511 32.0066 1.32168C37.525 2.77453 41.8266 6.47165 44.1651 11.146C40.4673 13.5799 37.6154 17.2899 36.3738 21.8429C35.1321 26.3959 35.7156 31.01 37.6787 34.9352ZM29.5437 10.3586C34.6188 11.695 37.6358 16.8294 36.2765 21.8169C34.915 26.8046 29.6907 29.7688 24.6156 28.4324C19.5405 27.096 16.5234 21.9616 17.8827 16.9741C19.2442 11.9866 24.4686 9.02219 29.5437 10.3586Z" fill="#FF9200"/>
<path fill-rule="evenodd" clip-rule="evenodd" d="M38.8836 37.0421C35.9615 32.7217 34.8692 27.2355 36.3415 21.8355C39.06 11.8603 49.511 5.93174 59.6612 8.60452C69.8114 11.2773 75.8454 21.5459 73.1246 31.5211C71.6523 36.9214 67.9139 41.1354 63.1848 43.4411C60.7106 39.7806 56.9201 36.9569 52.2656 35.731C47.6089 34.5053 42.8912 35.0887 38.8836 37.0421ZM57.1983 17.6414C62.2734 18.9778 65.2881 24.1122 63.9289 29.0997C62.5696 34.0872 57.3453 37.0516 52.2702 35.7152C47.1928 34.3788 44.178 29.2444 45.5373 24.2569C46.8965 19.2692 52.1209 16.305 57.1983 17.6414Z" fill="#44C5CB"/>
<path fill-rule="evenodd" clip-rule="evenodd" d="M36.733 38.2491C41.1387 35.3507 46.743 34.2622 52.2614 35.715C62.4116 38.3878 68.4457 48.6564 65.7249 58.6316C63.0064 68.6069 52.5554 74.5354 42.4052 71.8626C36.8868 70.4097 32.5874 66.7126 30.2466 62.0383C33.9444 59.6044 36.7963 55.8944 38.038 51.3414C39.2796 46.7884 38.6984 42.1742 36.733 38.2491ZM49.7962 44.7519C54.8736 46.0883 57.8883 51.2227 56.5291 56.2102C55.1699 61.1979 49.9455 64.1621 44.8681 62.8257C39.793 61.4893 36.7782 56.3549 38.1375 51.3674C39.4967 46.3799 44.7211 43.4155 49.7962 44.7519Z" fill="#FCE315"/>
<path fill-rule="evenodd" clip-rule="evenodd" d="M11.1941 29.7257C13.6683 33.3862 17.4588 36.2098 22.1133 37.4356C26.77 38.6615 31.4877 38.0781 35.4954 36.1247C38.4174 40.445 39.5098 45.9311 38.0374 51.3313C35.3167 61.3065 24.8679 67.235 14.7177 64.5623C4.56752 61.8893 -1.46652 51.6209 1.25423 41.6456C2.72655 36.2454 6.46278 32.0311 11.1941 29.7257ZM22.1088 37.4516C27.1861 38.7879 30.2009 43.9224 28.8416 48.9099C27.4824 53.8974 22.2558 56.8618 17.1807 55.5254C12.1056 54.189 9.09079 49.0546 10.45 44.0671C11.8093 39.0793 17.0337 36.1152 22.1088 37.4516Z" fill="#F53D52"/>
</svg>
