<svg width="1196" height="1198" viewBox="0 0 1196 1198" fill="none" xmlns="http://www.w3.org/2000/svg">
<g clip-path="url(#clip0)">
<path fill-rule="evenodd" clip-rule="evenodd" d="M605.766 571.172C533.795 619.5 442.159 637.651 351.965 613.426C186.066 568.859 87.4805 397.637 131.912 231.307C176.381 64.9776 347.159 -33.8761 513.058 10.6905C603.252 34.9157 673.559 96.5626 711.781 174.504C651.343 215.087 604.731 276.949 584.437 352.867C564.143 428.785 573.68 505.723 605.766 571.172ZM472.803 161.374C555.753 183.657 605.064 269.27 582.848 352.433C560.595 435.6 475.206 485.025 392.256 462.742C309.307 440.459 259.996 354.846 282.212 271.683C304.465 188.52 389.854 139.091 472.803 161.374Z" fill="#FF9200"/>
<path fill-rule="evenodd" clip-rule="evenodd" d="M625.683 606.27C577.924 534.232 560.07 442.753 584.134 352.712C628.566 186.382 799.381 87.528 965.28 132.095C1131.18 176.661 1229.8 347.883 1185.33 514.213C1161.27 604.258 1100.16 674.524 1022.87 712.969C982.431 651.933 920.478 604.85 844.404 584.409C768.293 563.971 691.185 573.699 625.683 606.27ZM925.025 282.778C1007.97 305.062 1057.25 390.674 1035.03 473.837C1012.82 557 927.428 606.429 844.478 584.146C761.492 561.863 712.218 476.25 734.434 393.087C756.649 309.92 842.039 260.495 925.025 282.778Z" fill="#44C5CB"/>
<path fill-rule="evenodd" clip-rule="evenodd" d="M590.406 626.596C662.414 578.268 754.013 560.117 844.207 584.342C1010.11 628.909 1108.73 800.13 1064.26 966.46C1019.83 1132.79 849.012 1231.64 683.114 1187.08C592.919 1162.85 522.649 1101.21 484.39 1023.26C544.828 982.681 591.441 920.819 611.735 844.901C632.028 768.983 622.528 692.045 590.406 626.596ZM803.915 735.026C886.902 757.309 936.176 842.922 913.96 926.085C891.744 1009.25 806.355 1058.68 723.369 1036.39C640.419 1014.11 591.145 928.497 613.361 845.334C635.577 762.171 720.966 712.742 803.915 735.026Z" fill="#FCE315"/>
<path fill-rule="evenodd" clip-rule="evenodd" d="M173.129 484.347C213.569 545.382 275.522 592.465 351.596 612.903C427.707 633.344 504.816 623.616 570.317 591.046C618.076 663.084 635.93 754.559 611.866 844.604C567.397 1010.93 396.619 1109.79 230.721 1065.22C64.8221 1020.65 -33.8004 849.433 10.6684 683.103C34.7325 593.058 95.7989 522.787 173.129 484.347ZM351.522 613.17C434.509 635.453 483.782 721.066 461.566 804.229C439.351 887.392 353.925 936.821 270.976 914.537C188.026 892.254 138.752 806.641 160.968 723.478C183.184 640.311 268.573 590.886 351.522 613.17Z" fill="#F53D52"/>
<circle cx="433" cy="312" r="156" fill="white"/>
<ellipse cx="884.5" cy="433" rx="155.5" ry="156" fill="white"/>
<ellipse cx="762.5" cy="886" rx="155.5" ry="156" fill="white"/>
<ellipse cx="311.5" cy="765" rx="155.5" ry="156" fill="white"/>
</g>
<defs>
<clipPath id="clip0">
<rect width="1196" height="1198" fill="white"/>
</clipPath>
</defs>
</svg>
