<svg width="362" height="84" viewBox="0 0 362 84" fill="none" xmlns="http://www.w3.org/2000/svg">
<path d="M104.914 20.7163C103.464 20.7163 102.738 21.0589 102.738 21.7439C102.738 22.4289 102.956 22.9027 103.389 23.1588C103.823 23.4149 104.562 23.7158 105.614 24.0615C106.666 24.4104 107.598 24.7529 108.406 25.0922C109.214 25.4315 110.077 25.9661 110.996 26.6992C111.914 27.4354 112.374 28.7031 112.374 30.5085C112.374 32.3171 111.624 33.8152 110.123 35.0028C108.618 36.1936 106.803 36.789 104.673 36.789C102.546 36.789 100.52 36.12 98.6043 34.7819C98.1091 34.4266 97.6075 33.972 97.1058 33.415L97.0667 33.3766C97.0569 33.3574 97.0472 33.3478 97.0342 33.3446C97.0211 33.3382 97.0081 33.3318 96.9983 33.3222C96.9918 33.3062 96.9788 33.2966 96.9658 33.2902C96.9527 33.287 96.8941 33.223 96.7866 33.1013C96.539 32.8421 96.5944 32.5508 96.9462 32.2307L99.3046 30.0283C99.5 29.8971 99.6532 29.833 99.7704 29.833C99.8844 29.8234 100.047 29.9067 100.259 30.0795C100.464 30.2524 100.933 30.6557 101.666 31.2863C102.399 31.9138 103.363 32.2307 104.556 32.2307C106.155 32.2307 106.953 31.6128 106.953 30.3804C106.953 29.7114 106.526 29.2216 105.673 28.9079C104.823 28.5942 104.061 28.3253 103.389 28.1012C102.718 27.874 101.569 27.3298 99.9431 26.4655C98.3176 25.6012 97.5032 24.0455 97.5032 21.7951C97.5032 20.1466 98.158 18.8213 99.4642 17.8161C100.774 16.8142 102.562 16.3116 104.833 16.3116C107.103 16.3116 108.8 16.7822 109.917 17.7201C111.035 18.6581 111.592 19.2311 111.592 19.4455C111.592 19.6568 111.478 19.8872 111.25 20.1305L109.168 22.3041C108.895 22.573 108.66 22.637 108.465 22.4993C108.269 22.3617 108.08 22.2177 107.895 22.0704C106.842 21.1677 105.849 20.7163 104.914 20.7163Z" fill="#333333"/>
<path d="M129.061 21.824C129.061 21.9776 129.006 22.1409 128.888 22.3041L127.683 24.324C127.426 24.7562 127.162 24.9738 126.888 24.9738C126.615 24.9738 126.309 24.865 125.973 24.6473C125.126 24.1031 124.331 23.8278 123.589 23.8278C122.273 23.8278 121.253 24.2472 120.533 25.0859C119.813 25.9246 119.452 26.9297 119.452 28.1013C119.452 29.2729 119.813 30.2588 120.533 31.0623C121.253 31.8658 122.126 32.2691 123.152 32.2691C124.175 32.2691 125.149 31.9554 126.067 31.3312C126.26 31.1904 126.494 31.1231 126.768 31.1231C127.045 31.1231 127.292 31.2864 127.511 31.6161L129.035 33.8697C129.159 34.0617 129.221 34.257 129.221 34.4554C129.221 34.6475 129.015 34.8876 128.599 35.1725C126.947 36.2929 125.201 36.8531 123.364 36.8531C120.94 36.8531 119.022 36.168 117.605 34.7948C116.184 33.4247 115.315 32.1667 114.992 31.0239C114.67 29.8811 114.51 28.9048 114.51 28.0885C114.51 27.2722 114.614 26.4816 114.826 25.7229C115.038 24.9642 115.432 24.0967 116.005 23.1236C116.582 22.1537 117.543 21.2766 118.895 20.4987C120.246 19.724 121.813 19.3335 123.589 19.3335C125.364 19.3335 126.986 19.8457 128.452 20.87L128.413 20.8316C128.846 21.0749 129.061 21.4046 129.061 21.824Z" fill="#333333"/>
<path d="M131.81 15.5654C131.81 14.8899 132.175 14.5507 132.908 14.5507H135.97C136.175 14.5507 136.4 14.6243 136.648 14.7715C136.895 14.9188 137.019 15.1749 137.019 15.5398V21.3754C137.602 20.5079 138.381 19.9509 139.351 19.7012C140.322 19.4547 141.198 19.3299 141.977 19.3299C142.752 19.3299 143.521 19.5252 144.28 19.9157C145.042 20.3062 145.788 21.004 146.521 22.006C147.254 23.0111 147.622 24.5989 147.622 26.7692V35.5082C147.622 36.1932 147.309 36.5389 146.681 36.5389H143.554C143.163 36.5389 142.896 36.4717 142.752 36.3405C142.606 36.2124 142.531 35.9595 142.531 35.585V26.7692C142.531 26.0297 142.264 25.3959 141.723 24.8678C141.185 24.3364 140.521 24.0707 139.736 24.0707C138.667 24.0707 137.954 24.4164 137.596 25.1078C137.237 25.7993 137.045 26.3435 137.019 26.7436V35.5466C137.019 36.206 136.671 36.5389 135.97 36.5389H132.908C132.175 36.5389 131.81 36.1932 131.81 35.5082V15.5654Z" fill="#333333"/>
<path d="M155.307 28.1013C155.307 29.2825 155.666 30.2716 156.382 31.0687C157.096 31.869 158.04 32.2691 159.216 32.2691C160.392 32.2691 161.327 31.8722 162.021 31.0847C162.715 30.2941 163.06 29.2985 163.06 28.1013C163.06 26.9105 162.715 25.9021 162.021 25.0731C161.327 24.244 160.392 23.8278 159.216 23.8278C158.04 23.8278 157.096 24.244 156.382 25.0795C155.666 25.9118 155.307 26.9201 155.307 28.1013ZM150.825 31.0175C150.509 29.8811 150.35 28.9048 150.35 28.0885C150.35 27.2722 150.457 26.4816 150.669 25.7229C150.881 24.9642 151.281 24.0935 151.868 23.1108C152.454 22.1313 153.425 21.2574 154.776 20.4859C156.128 19.7177 157.526 19.3335 158.966 19.3335C161.66 19.3335 163.868 20.1818 165.585 21.8816C167.305 23.5782 168.165 25.6461 168.165 28.0885C168.165 29.6858 167.767 31.1519 166.979 32.49C166.187 33.8281 165.109 34.8876 163.744 35.6751C162.379 36.4593 160.891 36.8531 159.285 36.8531C156.799 36.8531 154.851 36.1616 153.431 34.782C152.014 33.4023 151.144 32.1475 150.825 31.0175Z" fill="#333333"/>
<path d="M175.263 28.1013C175.263 29.2825 175.621 30.2716 176.338 31.0687C177.051 31.869 177.999 32.2691 179.172 32.2691C180.348 32.2691 181.283 31.8722 181.976 31.0847C182.67 30.2941 183.016 29.2985 183.016 28.1013C183.016 26.9105 182.67 25.9021 181.976 25.0731C181.283 24.244 180.348 23.8278 179.172 23.8278C177.999 23.8278 177.051 24.244 176.338 25.0795C175.621 25.9118 175.263 26.9201 175.263 28.1013ZM170.784 31.0175C170.465 29.8811 170.305 28.9048 170.305 28.0885C170.305 27.2722 170.412 26.4816 170.624 25.7229C170.836 24.9642 171.237 24.0935 171.823 23.1108C172.409 22.1313 173.38 21.2574 174.732 20.4859C176.084 19.7177 177.481 19.3335 178.921 19.3335C181.615 19.3335 183.823 20.1818 185.54 21.8816C187.26 23.5782 188.12 25.6461 188.12 28.0885C188.12 29.6858 187.726 31.1519 186.934 32.49C186.143 33.8281 185.065 34.8876 183.7 35.6751C182.335 36.4593 180.846 36.8531 179.24 36.8531C176.755 36.8531 174.807 36.1616 173.387 34.782C171.97 33.4023 171.1 32.1475 170.784 31.0175Z" fill="#333333"/>
<path d="M190.835 15.5871C190.835 14.9117 191.158 14.5724 191.803 14.5724H195.116C195.311 14.582 195.506 14.6812 195.699 14.8733C195.894 15.0622 195.992 15.3022 195.992 15.5871V35.5171C195.992 35.8564 195.894 36.1125 195.699 36.2854C195.506 36.4583 195.252 36.5479 194.943 36.5479H191.803C191.451 36.5479 191.197 36.4583 191.047 36.2854C190.907 36.1125 190.835 35.8564 190.835 35.5171V15.5871Z" fill="#333333"/>
<path d="M217.683 21.3525C217.008 21.3525 216.363 21.4901 215.741 21.7622C215.116 22.0375 214.582 22.4152 214.129 22.8954C213.679 23.3787 213.327 23.9389 213.077 24.576C212.822 25.213 212.699 26.0837 212.699 27.1881C212.699 28.2892 213.181 29.3488 214.148 30.3667C215.116 31.3815 216.262 31.8905 217.588 31.8905C218.914 31.8905 220.044 31.5415 220.982 30.8469C221.272 30.6741 221.52 30.7125 221.725 30.9653L224.044 34.2465C224.211 34.5954 224.11 34.8675 223.738 35.0691C221.963 36.2503 220.077 36.8393 218.08 36.8393C216.083 36.8393 214.288 36.3816 212.699 35.4661C211.109 34.5505 209.845 33.3149 208.914 31.7592C207.982 30.2067 207.516 28.5069 207.516 26.6599C207.516 24.816 207.979 23.1099 208.907 21.5413C209.835 19.9728 211.096 18.7308 212.692 17.8153C214.285 16.8997 216.083 16.442 218.08 16.442C220.087 16.442 221.953 17.0182 223.686 18.1738C224.067 18.3915 224.168 18.6732 223.992 19.0221L221.699 22.2264C221.513 22.5017 221.266 22.5561 220.956 22.3832C220.038 21.695 218.947 21.3525 217.683 21.3525Z" fill="#333333"/>
<path d="M240.054 36.5282C239.533 36.5282 239.181 36.1793 238.996 35.4847L238.716 34.1819C238.416 34.8061 237.768 35.3983 236.768 35.9521C235.771 36.5091 234.68 36.7875 233.494 36.7875C231.357 36.7875 229.715 36.0833 228.569 34.678C227.425 33.2696 226.852 31.4962 226.852 29.3482V20.6092C226.852 19.9338 227.168 19.5945 227.793 19.5945H230.924C231.311 19.5945 231.579 19.6553 231.725 19.7834C231.872 19.9082 231.943 20.1579 231.943 20.5324V29.2202C231.943 29.9756 232.217 30.6382 232.764 31.2048C233.315 31.7746 233.976 32.0595 234.755 32.0595C235.523 32.0595 236.256 31.813 236.953 31.3233C237.65 30.8335 238.002 30.1389 238.002 29.2458V20.5708C238.002 19.9178 238.344 19.5945 239.035 19.5945H242.11C242.843 19.5945 243.211 19.9338 243.211 20.6092V35.5359C243.211 35.8848 243.064 36.1537 242.771 36.3426L242.853 36.3042C242.677 36.4514 242.429 36.5282 242.11 36.5282H240.054Z" fill="#333333"/>
<path d="M246.453 15.5871C246.453 14.9117 246.776 14.5724 247.421 14.5724H250.733C250.929 14.582 251.121 14.6812 251.317 14.8733C251.512 15.0622 251.606 15.3022 251.606 15.5871V35.5171C251.606 35.8564 251.512 36.1125 251.317 36.2854C251.121 36.4583 250.87 36.5479 250.561 36.5479H247.421C247.066 36.5479 246.815 36.4583 246.665 36.2854C246.522 36.1125 246.453 35.8564 246.453 35.5171V15.5871Z" fill="#333333"/>
<path d="M260.018 36.5384H256.956C256.259 36.5384 255.91 36.1927 255.91 35.5077L255.897 24.2527H254.49C253.793 24.2527 253.444 23.8941 253.444 23.1739V20.5938C253.444 19.9152 253.793 19.5791 254.49 19.5791H255.897L255.91 16.9606C255.91 16.6821 256.001 16.474 256.187 16.3332C256.373 16.1955 256.64 16.0643 256.982 15.9427L260.057 14.8895C260.102 14.8799 260.145 14.8767 260.19 14.8767H260.311C260.646 14.8767 260.868 14.9727 260.972 15.1616C261.08 15.3537 261.135 15.6066 261.145 15.9171L261.132 19.5791H262.988C263.288 19.5791 263.526 19.6655 263.702 19.8384C263.881 20.0113 263.969 20.2641 263.969 20.5938V23.1739C263.969 23.8941 263.64 24.2527 262.988 24.2527H261.132L261.145 35.5077C261.145 36.1927 260.77 36.5384 260.018 36.5384Z" fill="#333333"/>
<path d="M279.744 36.5282C279.222 36.5282 278.867 36.1793 278.682 35.4847L278.405 34.1819C278.102 34.8061 277.454 35.3983 276.457 35.9521C275.457 36.5091 274.365 36.7875 273.183 36.7875C271.043 36.7875 269.401 36.0833 268.258 34.678C267.114 33.2696 266.541 31.4962 266.541 29.3482V20.6092C266.541 19.9338 266.854 19.5945 267.482 19.5945H270.61C271 19.5945 271.268 19.6553 271.411 19.7834C271.558 19.9082 271.632 20.1579 271.632 20.5324V29.2202C271.632 29.9756 271.906 30.6382 272.453 31.2048C273.001 31.7746 273.662 32.0595 274.44 32.0595C275.209 32.0595 275.942 31.813 276.642 31.3233C277.339 30.8335 277.688 30.1389 277.688 29.2458V20.5708C277.688 19.9178 278.033 19.5945 278.721 19.5945H281.796C282.532 19.5945 282.897 19.9338 282.897 20.6092V35.5359C282.897 35.8848 282.75 36.1537 282.46 36.3426L282.538 36.3042C282.363 36.4514 282.115 36.5282 281.796 36.5282H279.744Z" fill="#333333"/>
<path d="M291.338 35.5118C291.338 36.1968 290.976 36.5426 290.253 36.5426H287.204C286.497 36.5426 286.142 36.1968 286.142 35.5118V20.5851C286.142 20.1146 286.292 19.8361 286.585 19.7464C286.882 19.6536 287.097 19.6088 287.23 19.6088H289.269C289.66 19.6088 289.931 19.7753 290.08 20.1082C290.23 20.4443 290.341 20.7356 290.416 20.9885C290.491 21.2414 290.579 21.4782 290.677 21.7055C290.95 21.411 291.39 20.9404 291.996 20.297C292.599 19.6568 293.39 19.3335 294.361 19.3335C295.439 19.3335 296.286 19.4583 296.905 19.7048C297.524 19.9545 298.27 20.3931 299.146 21.0269C299.534 21.2542 299.729 21.491 299.729 21.7439C299.729 21.9968 299.648 22.2465 299.491 22.4994L298.257 24.5577C298.009 24.9034 297.755 25.0795 297.488 25.0795C297.224 25.0795 296.977 25.0314 296.745 24.9354C295.977 24.196 295.133 23.8278 294.214 23.8278C293.296 23.8278 292.634 24.0903 292.234 24.6153C291.83 25.1403 291.533 25.5564 291.338 25.8605V35.5118Z" fill="#333333"/>
<path d="M309.216 23.3989C308.131 23.3989 307.183 23.9143 306.382 24.9482C306.151 25.2427 305.962 25.5436 305.812 25.8477H312.744C312.291 25.0379 311.802 24.4328 311.271 24.0231C310.74 23.607 310.056 23.3989 309.216 23.3989ZM300.655 28.3862C300.655 25.7485 301.463 23.5942 303.079 21.9264C304.121 20.8316 305.382 20.0762 306.857 19.66C307.6 19.4423 308.362 19.3335 309.151 19.3335C311.447 19.3335 313.428 20.137 315.089 21.7439C316.75 23.3509 317.581 25.2139 317.581 27.333C317.581 27.7908 317.571 28.1685 317.555 28.4662C317.535 28.7607 317.467 28.9944 317.343 29.1673C317.122 29.481 316.48 29.6378 315.421 29.6378H305.652C305.812 30.6718 306.271 31.4208 307.03 31.8914C307.789 32.3684 308.528 32.6084 309.242 32.6084C309.958 32.6084 310.672 32.49 311.379 32.2563C312.086 32.0194 312.623 31.7345 312.994 31.3952C313.288 31.1615 313.529 31.0431 313.724 31.0431C313.916 31.0431 314.164 31.1999 314.467 31.5137L315.91 33.1142C316.06 33.2903 316.135 33.5047 316.135 33.7672C316.135 34.0265 315.968 34.273 315.633 34.5099C313.926 36.056 311.978 36.8179 309.786 36.8019C308.548 36.8019 307.379 36.581 306.274 36.136C305.17 35.6943 304.203 35.0765 303.372 34.289C302.551 33.4983 301.893 32.5732 301.398 31.5137C300.903 30.4541 300.655 29.4105 300.655 28.3862Z" fill="#333333"/>
<path d="M333.641 29.5652C333.641 30.3207 333.846 30.9801 334.26 31.5499C334.67 32.1197 335.41 32.4046 336.478 32.4046C337.547 32.4046 338.247 32.1037 338.573 31.5051C338.899 30.9065 339.071 30.4103 339.091 30.0198L338.28 29.863C338.006 29.8021 337.869 29.6581 337.869 29.434C337.869 29.2067 338.068 28.1536 338.469 26.2681C338.527 25.964 338.7 25.8136 338.983 25.8136C339.045 25.8136 339.084 25.8168 339.104 25.8264L344.987 26.9468C345.016 26.9532 345.117 26.9596 345.293 26.9596C345.469 26.9596 345.668 26.8859 345.889 26.7451C346.111 26.601 346.28 26.3994 346.394 26.1369C346.524 26.0441 346.593 25.9 346.593 25.7079C346.69 25.3622 346.863 25.1862 347.107 25.1862C347.169 25.1862 347.212 25.1926 347.228 25.199L350.264 25.788C350.388 25.788 350.498 25.8552 350.603 25.9961C350.704 26.1337 350.753 26.2553 350.753 26.361C350.753 26.4634 350.749 26.5306 350.74 26.5562C350.521 27.9167 349.909 29.0243 348.906 29.8758C347.902 30.7273 346.756 31.153 345.466 31.153C345.173 31.153 344.883 31.1274 344.589 31.0762L343.69 30.9193C343.521 33.2369 342.726 34.7894 341.303 35.5737C339.879 36.3612 338.14 36.7549 336.081 36.7549C334.022 36.7549 332.286 36.1531 330.872 34.9559C329.458 33.7587 328.752 32.2606 328.752 30.4616C328.752 28.6657 329.107 27.4333 329.817 26.7643C330.53 26.0953 331.094 25.6183 331.507 25.3302C330.563 24.3571 330.09 23.1695 330.09 21.761C330.09 20.3557 330.664 19.1233 331.814 18.0702C332.964 17.0138 334.589 16.4856 336.69 16.4856C338.794 16.4856 340.143 17.1514 340.739 18.4799C341.335 19.8083 341.635 20.9799 341.635 21.9947C341.635 22.206 341.576 22.3596 341.456 22.4652C341.335 22.5677 341.192 22.6221 341.026 22.6221L338.241 22.6349C337.853 22.6349 337.658 22.4652 337.658 22.1259C337.658 21.1176 337.156 20.615 336.146 20.615C335.573 20.615 335.169 20.7815 334.934 21.1176C334.7 21.4505 334.583 21.7482 334.583 22.0075C334.583 22.478 334.706 22.9262 334.954 23.3584C335.201 23.7873 335.53 24.0402 335.934 24.1202C336.332 24.1874 336.53 24.3763 336.53 24.6804C336.53 24.7476 336.527 24.7956 336.517 24.8212L335.99 27.3245C335.954 27.6286 335.781 27.779 335.472 27.779L335.087 27.7534C334.592 27.7534 334.227 27.9647 333.993 28.3905C333.758 28.8162 333.641 29.2067 333.641 29.5652Z" fill="#333333"/>
<path d="M107.199 48.6367C106.528 48.6367 105.88 48.7711 105.258 49.0464C104.636 49.3185 104.098 49.6962 103.648 50.1796C103.196 50.6597 102.847 51.2199 102.593 51.8601C102.342 52.4971 102.215 53.3679 102.215 54.4722C102.215 55.5734 102.701 56.633 103.668 57.6477C104.636 58.6657 105.782 59.1714 107.108 59.1714C108.434 59.1714 109.564 58.8257 110.499 58.1311C110.792 57.9582 111.04 57.9966 111.242 58.2463L113.564 61.5306C113.73 61.8764 113.629 62.1516 113.258 62.3501C111.483 63.5313 109.597 64.1235 107.597 64.1235C105.6 64.1235 103.808 63.6657 102.215 62.747C100.626 61.8315 99.3649 60.5959 98.4333 59.0434C97.5016 57.4877 97.0326 55.7879 97.0326 53.944C97.0326 52.097 97.4984 50.3908 98.4268 48.8255C99.3519 47.257 100.616 46.0149 102.209 45.0994C103.805 44.1839 105.6 43.7262 107.597 43.7262C109.603 43.7262 111.473 44.3024 113.206 45.458C113.584 45.6756 113.685 45.9573 113.509 46.303L111.216 49.5073C111.03 49.7858 110.782 49.837 110.473 49.6642C109.554 48.9792 108.463 48.6367 107.199 48.6367Z" fill="#333333"/>
<path d="M116.368 42.8713C116.368 42.1927 116.691 41.8566 117.336 41.8566H120.652C120.844 41.863 121.04 41.9622 121.232 42.1543C121.427 42.3464 121.525 42.5832 121.525 42.8713V62.8013C121.525 63.1374 121.427 63.3935 121.232 63.5696C121.04 63.7424 120.789 63.8288 120.479 63.8288H117.336C116.984 63.8288 116.73 63.7424 116.58 63.5696C116.44 63.3935 116.368 63.1374 116.368 62.8013V42.8713Z" fill="#333333"/>
<path d="M128.922 40.139C129.632 40.139 129.984 40.4815 129.984 41.1666V43.7723C129.984 44.0059 129.883 44.2492 129.684 44.5021C129.485 44.7518 129.231 44.8799 128.922 44.8799H125.782C125.111 44.8799 124.775 44.5085 124.775 43.7723V41.1666C124.775 40.792 124.857 40.5296 125.019 40.3727C125.182 40.2159 125.436 40.139 125.782 40.139H128.922ZM129.984 62.7899C129.984 63.475 129.616 63.8175 128.883 63.8175H125.782C125.111 63.8175 124.775 63.475 124.775 62.7899V47.9145C124.775 47.6264 124.857 47.3831 125.019 47.1846C125.182 46.983 125.436 46.8837 125.782 46.8837H128.883C129.3 46.8837 129.586 47.0182 129.746 47.2807C129.906 47.5464 129.984 47.7576 129.984 47.9145V62.7899Z" fill="#333333"/>
<path d="M134.327 46.8898H136.366C136.819 46.8898 137.096 47.0306 137.204 47.3091C137.308 47.5844 137.383 47.7893 137.428 47.9205L137.718 49.1049C138.233 48.0294 138.982 47.3443 139.972 47.053C140.963 46.7617 141.784 46.6177 142.438 46.6177C143.614 46.6177 144.575 46.829 145.321 47.2483C146.067 47.6709 146.738 48.3111 147.328 49.169C147.719 48.5288 148.416 47.943 149.422 47.4116C150.432 46.8834 151.491 46.6177 152.605 46.6177C154.664 46.6177 156.224 47.3187 157.283 48.7208C158.344 50.1229 158.872 51.9027 158.872 54.0538V62.796C158.872 63.481 158.563 63.8235 157.947 63.8235H154.804C154.416 63.8235 154.149 63.7595 154.002 63.6283C153.856 63.497 153.784 63.2474 153.784 62.8728V54.0538C153.784 53.292 153.553 52.6486 153.093 52.1332C152.634 51.6178 152.038 51.3585 151.305 51.3585C150.572 51.3585 149.953 51.6146 149.448 52.1268C148.947 52.639 148.693 53.2824 148.693 54.0538V62.796C148.693 63.481 148.383 63.8235 147.768 63.8235H144.624C144.236 63.8235 143.969 63.7595 143.823 63.6283C143.676 63.497 143.604 63.2474 143.604 62.8728V54.0538C143.604 53.2824 143.386 52.639 142.95 52.1268C142.51 51.6146 141.914 51.3585 141.152 51.3585C140.083 51.3585 139.37 51.7042 139.011 52.3957C138.653 53.0839 138.461 53.6281 138.435 54.0282V62.8344C138.435 63.4938 138.086 63.8235 137.389 63.8235H134.327C133.594 63.8235 133.226 63.481 133.226 62.796V47.8661C133.226 47.5044 133.373 47.2387 133.663 47.0722L133.585 47.1139C133.76 46.9634 134.008 46.8898 134.327 46.8898Z" fill="#333333"/>
<path d="M167.61 52.3604C166.887 53.1863 166.522 54.1947 166.522 55.3823C166.522 56.5731 166.887 57.5654 167.61 58.3593C168.333 59.1532 169.288 59.5501 170.473 59.5501C171.656 59.5501 172.659 59.1532 173.483 58.3529C174.304 57.5526 174.714 56.5635 174.714 55.3823C174.714 54.2107 174.304 53.2055 173.483 52.3669C172.659 51.5314 171.656 51.112 170.473 51.112C169.288 51.112 168.333 51.5282 167.61 52.3604ZM170.486 64.1373C168.03 64.1373 165.939 63.289 164.216 61.5956C162.492 59.9022 161.632 57.8279 161.632 55.3695C161.632 52.9142 162.486 50.8399 164.196 49.1497C165.906 47.4628 168.004 46.6177 170.486 46.6177C172.066 46.6177 173.209 46.9346 173.913 47.5684C174.613 48.2022 175.086 48.692 175.324 49.0409L175.721 47.8277C175.907 47.3507 176.053 47.0627 176.157 46.9634C176.265 46.8642 176.48 46.8129 176.809 46.8129H178.822C179.125 46.8129 179.376 46.8994 179.578 47.0722C179.783 47.2483 179.884 47.4916 179.884 47.8021V62.8344C179.884 63.1801 179.77 63.4362 179.539 63.6027C179.389 63.7499 179.151 63.8235 178.822 63.8235H176.157C175.815 63.8235 175.581 63.7467 175.457 63.5963C175.333 63.4426 175.206 63.1769 175.073 62.796L174.887 62.1942C173.571 63.4906 172.102 64.1373 170.486 64.1373Z" fill="#333333"/>
<path d="M188.297 63.8226H185.235C184.535 63.8226 184.186 63.4801 184.186 62.7951L184.173 51.5401H182.769C182.072 51.5401 181.72 51.1783 181.72 50.4581V47.8812C181.72 47.2026 182.072 46.8633 182.769 46.8633H184.173L184.186 44.2448C184.186 43.9695 184.281 43.7582 184.466 43.6206C184.652 43.4829 184.916 43.3517 185.261 43.23L188.336 42.1737C188.379 42.1673 188.424 42.1609 188.47 42.1609H188.587C188.923 42.1609 189.144 42.2569 189.252 42.449C189.356 42.6379 189.415 42.8907 189.421 43.2044L189.408 46.8633H191.265C191.564 46.8633 191.806 46.9497 191.981 47.1258C192.157 47.2986 192.245 47.5483 192.245 47.8812V50.4581C192.245 51.1783 191.92 51.5401 191.265 51.5401H189.408L189.421 62.7951C189.421 63.4801 189.046 63.8226 188.297 63.8226Z" fill="#333333"/>
<path d="M202.541 50.6799C201.453 50.6799 200.508 51.1984 199.703 52.2324C199.475 52.5269 199.283 52.8246 199.133 53.1287H206.065C205.616 52.322 205.124 51.7138 204.596 51.3073C204.065 50.8879 203.381 50.6799 202.541 50.6799ZM193.977 55.6704C193.977 53.0295 194.785 50.8752 196.404 49.2106C197.446 48.1158 198.703 47.3603 200.182 46.9442C200.922 46.7265 201.687 46.6177 202.476 46.6177C204.772 46.6177 206.749 47.4212 208.411 49.0281C210.072 50.6351 210.903 52.4949 210.903 54.614C210.903 55.075 210.896 55.4527 210.877 55.7472C210.86 56.0417 210.789 56.2786 210.665 56.4515C210.443 56.7652 209.805 56.9188 208.743 56.9188H198.974C199.133 57.9528 199.593 58.705 200.352 59.1724C201.114 59.6525 201.85 59.8894 202.567 59.8894C203.283 59.8894 203.994 59.7741 204.7 59.5373C205.407 59.3036 205.948 59.0187 206.319 58.6794C206.609 58.4457 206.854 58.3273 207.046 58.3273C207.241 58.3273 207.489 58.4841 207.788 58.7946L209.235 60.3984C209.385 60.5712 209.46 60.7889 209.46 61.0482C209.46 61.3107 209.29 61.5572 208.955 61.7908C207.251 63.337 205.3 64.102 203.111 64.0828C201.873 64.0828 200.703 63.8619 199.596 63.4202C198.492 62.9784 197.524 62.3607 196.694 61.57C195.873 60.7793 195.215 59.8542 194.72 58.7946C194.224 57.7383 193.977 56.6947 193.977 55.6704Z" fill="#333333"/>
<path d="M222.825 44.5946C222.825 44.2041 223.024 44.0088 223.422 44.0088H227.409C227.542 44.0088 227.686 44.0632 227.842 44.172C227.995 44.2809 228.073 44.4218 228.073 44.5946V63.2346C228.073 63.6251 227.852 63.8203 227.409 63.8203H223.422C223.024 63.8203 222.825 63.6251 222.825 63.2346V44.5946Z" fill="#333333"/>
<path d="M232.997 46.8898H235.036C235.486 46.8898 235.766 47.0306 235.873 47.3091C235.978 47.5844 236.053 47.7893 236.098 47.9205L236.388 49.1049C236.688 48.4711 237.32 47.8981 238.277 47.3859C239.235 46.8738 240.303 46.6177 241.479 46.6177C243.616 46.6177 245.281 47.3283 246.47 48.7528C247.659 50.1773 248.252 51.9443 248.252 54.0538V62.796C248.252 63.481 247.939 63.8235 247.31 63.8235H244.183C243.792 63.8235 243.525 63.7595 243.382 63.6283C243.235 63.497 243.16 63.2474 243.16 62.8728V54.1979C243.16 53.452 242.844 52.7926 242.216 52.2196C241.58 51.6434 240.9 51.3585 240.167 51.3585C239.434 51.3585 238.753 51.637 238.124 52.1908C237.499 52.7478 237.157 53.4072 237.105 54.1723V62.8344C237.105 63.4938 236.756 63.8235 236.056 63.8235H232.997C232.261 63.8235 231.896 63.481 231.896 62.796V47.8661C231.896 47.5044 232.043 47.2387 232.332 47.0722L232.254 47.1139C232.43 46.9634 232.678 46.8898 232.997 46.8898Z" fill="#333333"/>
<path d="M255.644 40.139C256.351 40.139 256.706 40.4815 256.706 41.1666V43.7723C256.706 44.0059 256.605 44.2492 256.406 44.5021C256.207 44.7518 255.953 44.8799 255.644 44.8799H252.504C251.833 44.8799 251.497 44.5085 251.497 43.7723V41.1666C251.497 40.792 251.579 40.5296 251.742 40.3727C251.904 40.2159 252.158 40.139 252.504 40.139H255.644ZM256.706 62.7899C256.706 63.475 256.338 63.8175 255.605 63.8175H252.504C251.833 63.8175 251.497 63.475 251.497 62.7899V47.9145C251.497 47.6264 251.579 47.3831 251.742 47.1846C251.904 46.983 252.158 46.8837 252.504 46.8837H255.605C256.022 46.8837 256.308 47.0182 256.468 47.2807C256.628 47.5464 256.706 47.7576 256.706 47.9145V62.7899Z" fill="#333333"/>
<path d="M265.109 63.8226H262.047C261.347 63.8226 260.998 63.4801 260.998 62.7951L260.985 51.5401H259.581C258.884 51.5401 258.532 51.1783 258.532 50.4581V47.8812C258.532 47.2026 258.884 46.8633 259.581 46.8633H260.985L260.998 44.2448C260.998 43.9695 261.093 43.7582 261.278 43.6206C261.464 43.4829 261.728 43.3517 262.073 43.23L265.148 42.1737C265.191 42.1673 265.236 42.1609 265.282 42.1609H265.399C265.735 42.1609 265.956 42.2569 266.064 42.449C266.168 42.6379 266.227 42.8907 266.236 43.2044L266.22 46.8633H268.077C268.376 46.8633 268.618 46.9497 268.793 47.1258C268.969 47.2986 269.057 47.5483 269.057 47.8812V50.4581C269.057 51.1783 268.732 51.5401 268.077 51.5401H266.22L266.236 62.7951C266.236 63.4801 265.858 63.8226 265.109 63.8226Z" fill="#333333"/>
<path d="M275.735 40.139C276.442 40.139 276.797 40.4815 276.797 41.1666V43.7723C276.797 44.0059 276.696 44.2492 276.498 44.5021C276.299 44.7518 276.045 44.8799 275.735 44.8799H272.595C271.924 44.8799 271.585 44.5085 271.585 43.7723V41.1666C271.585 40.792 271.67 40.5296 271.833 40.3727C271.996 40.2159 272.25 40.139 272.595 40.139H275.735ZM276.797 62.7899C276.797 63.475 276.429 63.8175 275.696 63.8175H272.595C271.924 63.8175 271.585 63.475 271.585 62.7899V47.9145C271.585 47.6264 271.67 47.3831 271.833 47.1846C271.996 46.983 272.25 46.8837 272.595 46.8837H275.696C276.11 46.8837 276.397 47.0182 276.556 47.2807C276.716 47.5464 276.797 47.7576 276.797 47.9145V62.7899Z" fill="#333333"/>
<path d="M285.527 52.3604C284.8 53.1863 284.439 54.1947 284.439 55.3823C284.439 56.5731 284.8 57.5654 285.527 58.3593C286.25 59.1532 287.204 59.5501 288.39 59.5501C289.573 59.5501 290.576 59.1532 291.397 58.3529C292.221 57.5526 292.631 56.5635 292.631 55.3823C292.631 54.2107 292.221 53.2055 291.397 52.3669C290.576 51.5314 289.573 51.112 288.39 51.112C287.204 51.112 286.25 51.5282 285.527 52.3604ZM288.403 64.1373C285.947 64.1373 283.856 63.289 282.133 61.5956C280.409 59.9022 279.549 57.8279 279.549 55.3695C279.549 52.9142 280.403 50.8399 282.113 49.1497C283.823 47.4628 285.918 46.6177 288.403 46.6177C289.983 46.6177 291.127 46.9346 291.83 47.5684C292.53 48.2022 293.003 48.692 293.241 49.0409L293.638 47.8277C293.824 47.3507 293.97 47.0627 294.074 46.9634C294.182 46.8642 294.397 46.8129 294.726 46.8129H296.739C297.039 46.8129 297.293 46.8994 297.495 47.0722C297.7 47.2483 297.801 47.4916 297.801 47.8021V62.8344C297.801 63.1801 297.687 63.4362 297.456 63.6027C297.306 63.7499 297.068 63.8235 296.739 63.8235H294.074C293.729 63.8235 293.498 63.7467 293.374 63.5963C293.25 63.4426 293.12 63.1769 292.99 62.796L292.804 62.1942C291.488 63.4906 290.019 64.1373 288.403 64.1373Z" fill="#333333"/>
<path d="M306.214 63.8226H303.152C302.452 63.8226 302.103 63.4801 302.103 62.7951L302.09 51.5401H300.686C299.989 51.5401 299.637 51.1783 299.637 50.4581V47.8812C299.637 47.2026 299.989 46.8633 300.686 46.8633H302.09L302.103 44.2448C302.103 43.9695 302.198 43.7582 302.383 43.6206C302.569 43.4829 302.833 43.3517 303.178 43.23L306.253 42.1737C306.296 42.1673 306.341 42.1609 306.387 42.1609H306.504C306.84 42.1609 307.061 42.2569 307.165 42.449C307.273 42.6379 307.332 42.8907 307.338 43.2044L307.325 46.8633H309.182C309.481 46.8633 309.723 46.9497 309.898 47.1258C310.074 47.2986 310.162 47.5483 310.162 47.8812V50.4581C310.162 51.1783 309.837 51.5401 309.182 51.5401H307.325L307.338 62.7951C307.338 63.4801 306.963 63.8226 306.214 63.8226Z" fill="#333333"/>
<path d="M316.84 40.139C317.547 40.139 317.899 40.4815 317.899 41.1666V43.7723C317.899 44.0059 317.801 44.2492 317.602 44.5021C317.404 44.7518 317.15 44.8799 316.84 44.8799H313.7C313.026 44.8799 312.69 44.5085 312.69 43.7723V41.1666C312.69 40.792 312.772 40.5296 312.938 40.3727C313.101 40.2159 313.355 40.139 313.7 40.139H316.84ZM317.899 62.7899C317.899 63.475 317.534 63.8175 316.801 63.8175H313.7C313.026 63.8175 312.69 63.475 312.69 62.7899V47.9145C312.69 47.6264 312.772 47.3831 312.938 47.1846C313.101 46.983 313.355 46.8837 313.7 46.8837H316.801C317.215 46.8837 317.502 47.0182 317.661 47.2807C317.821 47.5464 317.899 47.7576 317.899 47.9145V62.7899Z" fill="#333333"/>
<path d="M320.679 46.9003H324.152C324.673 46.9003 325.005 47.1371 325.145 47.6045C325.295 48.0751 325.465 48.6032 325.65 49.1954C325.836 49.7844 326.031 50.3894 326.233 51.0105C326.435 51.6315 326.641 52.2461 326.843 52.8543C327.048 53.4625 327.266 54.1315 327.501 54.8677C327.732 55.6008 327.944 56.2026 328.129 56.67L331.006 47.6173C331.12 47.3324 331.253 47.1403 331.403 47.0443C331.553 46.9483 331.765 46.9003 332.038 46.9003H335.605C336.292 46.9003 336.608 47.0539 336.553 47.358C336.494 47.6621 336.436 47.8926 336.374 48.0462L329.905 63.261C329.667 63.642 329.348 63.834 328.95 63.834H327.335C326.758 63.834 326.393 63.642 326.233 63.261L319.976 48.2159C319.8 47.851 319.767 47.5405 319.878 47.2844C319.989 47.0283 320.256 46.9003 320.679 46.9003Z" fill="#333333"/>
<path d="M345.811 50.6799C344.723 50.6799 343.778 51.1984 342.974 52.2324C342.742 52.5269 342.553 52.8246 342.404 53.1287H349.335C348.886 52.322 348.394 51.7138 347.863 51.3073C347.335 50.8879 346.648 50.6799 345.811 50.6799ZM337.247 55.6704C337.247 53.0295 338.055 50.8752 339.674 49.2106C340.716 48.1158 341.974 47.3603 343.449 46.9442C344.192 46.7265 344.957 46.6177 345.742 46.6177C348.042 46.6177 350.019 47.4212 351.681 49.0281C353.342 50.6351 354.173 52.4949 354.173 54.614C354.173 55.075 354.166 55.4527 354.147 55.7472C354.13 56.0417 354.059 56.2786 353.935 56.4515C353.713 56.7652 353.072 56.9188 352.013 56.9188H342.244C342.404 57.9528 342.863 58.705 343.622 59.1724C344.384 59.6525 345.12 59.8894 345.837 59.8894C346.554 59.8894 347.264 59.7741 347.97 59.5373C348.677 59.3036 349.215 59.0187 349.586 58.6794C349.879 58.4457 350.12 58.3273 350.316 58.3273C350.511 58.3273 350.759 58.4841 351.059 58.7946L352.502 60.3984C352.655 60.5712 352.73 60.7889 352.73 61.0482C352.73 61.3107 352.56 61.5572 352.225 61.7908C350.521 63.337 348.57 64.102 346.381 64.0828C345.143 64.0828 343.974 63.8619 342.866 63.4202C341.762 62.9784 340.794 62.3607 339.964 61.57C339.143 60.7793 338.485 59.8542 337.99 58.7946C337.495 57.7383 337.247 56.6947 337.247 55.6704Z" fill="#333333"/>
<path fill-rule="evenodd" clip-rule="evenodd" d="M46.6787 39.9352C42.2753 42.8336 36.6688 43.9221 31.1504 42.4693C21.0002 39.7965 14.9684 29.5279 17.6869 19.5527C20.4076 9.57742 30.8564 3.6489 41.0066 6.32168C46.525 7.77453 50.8266 11.4717 53.1651 16.146C49.4673 18.5799 46.6154 22.2899 45.3738 26.8429C44.1321 31.3959 44.7156 36.01 46.6787 39.9352ZM38.5437 15.3586C43.6188 16.695 46.6358 21.8294 45.2765 26.8169C43.915 31.8046 38.6907 34.7688 33.6156 33.4324C28.5405 32.096 25.5234 26.9616 26.8827 21.9741C28.2442 16.9866 33.4686 14.0222 38.5437 15.3586Z" fill="#FF9200"/>
<path fill-rule="evenodd" clip-rule="evenodd" d="M47.8836 42.0421C44.9615 37.7217 43.8692 32.2355 45.3415 26.8355C48.06 16.8603 58.511 10.9317 68.6612 13.6045C78.8114 16.2773 84.8454 26.5459 82.1246 36.5211C80.6523 41.9214 76.9139 46.1354 72.1848 48.4411C69.7106 44.7806 65.9201 41.9569 61.2656 40.731C56.6089 39.5053 51.8912 40.0887 47.8836 42.0421ZM66.1983 22.6414C71.2734 23.9778 74.2881 29.1122 72.9289 34.0997C71.5696 39.0872 66.3453 42.0516 61.2702 40.7152C56.1928 39.3788 53.178 34.2444 54.5373 29.2569C55.8965 24.2692 61.1209 21.305 66.1983 22.6414Z" fill="#44C5CB"/>
<path fill-rule="evenodd" clip-rule="evenodd" d="M45.733 43.2491C50.1387 40.3507 55.743 39.2622 61.2614 40.715C71.4116 43.3878 77.4457 53.6564 74.7249 63.6316C72.0064 73.6069 61.5554 79.5354 51.4052 76.8626C45.8868 75.4097 41.5874 71.7126 39.2466 67.0383C42.9444 64.6044 45.7963 60.8944 47.038 56.3414C48.2796 51.7884 47.6984 47.1742 45.733 43.2491ZM58.7962 49.7519C63.8736 51.0883 66.8883 56.2227 65.5291 61.2102C64.1699 66.1979 58.9455 69.1621 53.8681 67.8257C48.793 66.4893 45.7782 61.3549 47.1375 56.3674C48.4967 51.3799 53.7211 48.4155 58.7962 49.7519Z" fill="#FCE315"/>
<path fill-rule="evenodd" clip-rule="evenodd" d="M20.1941 34.7257C22.6683 38.3862 26.4588 41.2098 31.1133 42.4356C35.77 43.6615 40.4877 43.0781 44.4954 41.1247C47.4174 45.445 48.5098 50.9311 47.0374 56.3313C44.3167 66.3065 33.8679 72.235 23.7177 69.5623C13.5675 66.8893 7.53348 56.6209 10.2542 46.6456C11.7265 41.2454 15.4628 37.0311 20.1941 34.7257ZM31.1088 42.4516C36.1861 43.7879 39.2009 48.9224 37.8416 53.9099C36.4824 58.8974 31.2558 61.8618 26.1807 60.5254C21.1056 59.189 18.0908 54.0546 19.45 49.0671C20.8093 44.0793 26.0337 41.1152 31.1088 42.4516Z" fill="#F53D52"/>
</svg>
